<?xml version="1.0" encoding="UTF-8"?>
<svg id="Layer_2" data-name="Layer 2" xmlns="http://www.w3.org/2000/svg" viewBox="0 0 251.12 84.35">
  <defs>
    <style>
      .cls-1 {
        fill: #06dbdb;
      }
    </style>
  </defs>
  <g id="For_me" data-name="For me">
    <g>
      <path class="cls-1" d="M25.38,28.77c7.33-.49,14.66-.89,22-1.18,2.06-.24,4.3.34,6.25-.4,1.49-.5,2.47-2.11,2.46-3.66-.27-5.22-6.1-3.89-9.71-3.92-7.37.32-14.75.73-22.11,1.23.13-3.25.3-6.5.62-9.74.01-.1.03-.19.04-.3.12-.42.14-.86.12-1.3,1.82.19,3.65.34,5.48.41,15.7.83,31.43.1,47.14-.23,2.65-.06,5.3-.09,7.95-.03,1.4-.08,2.91.42,4.21-.25,3.98-1.51,2.75-7.71-1.54-7.66-12.47-.41-24.95.51-37.43.52-8.6.07-17.22.01-25.78-.78-3.03-.29-6.06-.63-9.07-1.04-2.11-.22-4.29-.8-6.39-.24-2.42.62-3.76,3.58-2.67,5.82,1.63,2.79.81,1,2.57,3.68,1.67,2.37,3.01,4.95,4.2,7.58.57,1.37,1.07,2.77,1.52,4.18-3.76.29-7.53.61-11.29.95-5.25.12-5.27,7.85,0,8,4.04-.36,8.09-.7,12.14-1.01,0,3.62.08,7.25.18,10.86.34,9.26.74,18.55,2.42,27.67.28,1.53.59,3.18,1.7,4.35,2.02,2.2,5.74,1.56,7.08-1.06,1.32-2.93,1.17-6.29,1.2-9.44-.11-4.58-.43-9.14-.7-13.71-.35-6.51-1.25-12.97-2.6-19.35Z"/>
      <path class="cls-1" d="M49.45,31.34c-1.76-.92-4.18-.65-5.38,1.44-5.28,8.89-8.89,22.2-2.59,31.4,7.21,10.26,22.42,7.57,28.48-2.49,4.61-6.68,3.56-16.2-1.51-22.33-4.56-5.65-11.95-7.87-19-8.02ZM48.09,59.73c-1.87-1.97-2.95-8.61-.32-16.22.84-2.21.65-1.91,1.81-4.17,9.13,0,14.71,5.25,15.27,11.12,1.03,10.12-11.34,16.26-16.76,9.26Z"/>
      <path class="cls-1" d="M123.5,68.78c-1.33-1.43-2.7-2.82-4.11-4.17-4.59-4.4-9.43-8.52-14.21-12.7-.56-.49-1.12-.98-1.68-1.47,6.28-1.2,11.84-5.07,12.11-12.18.45-10.38-9.69-18.53-19.66-17.93-5.92.34-10.13,2.48-13.05,5.77-.04-.62-.2-1.22-.52-1.76-1.62-3-6.51-2.38-7.31.96-1.54,9.38-.37,18.93-.03,28.37.18,3.19.36,6.39.49,9.58.1,2.76.18,5.52.31,8.28.09,1.72.13,3.65,1.44,4.94,1.49,1.55,4.17,1.55,5.66,0,.62-.62,1.08-1.41,1.29-2.26.16-1.12.21-1.59.03-.23.39-2.29.41-4.62.47-6.93.1-6.59.17-13.19.34-19.78,1.66.87,3.41,1.58,5.17,2.12,7.11,6.38,14.45,12.51,21.47,18.98,1.89,1.75,3.74,3.54,5.51,5.41.97.89,1.67,2.21,2.97,2.64,2.9,1.45,6.34-1.66,5.4-4.72-.3-1.21-1.28-2.01-2.08-2.91ZM94.13,42.16c-2.52-2.24-4.95-4.63-7.61-6.71.38-1.35.37-1.25,2.01-3.75,2.07-2.65,9.28-5.55,15.33-1.06,2.76,1.85,5.05,7.08,3,9.57-1.86,2.67-7.46,3.16-12.73,1.95Z"/>
      <path class="cls-1" d="M245.08,51.41c-7.67,5.66-15.08,11.75-23.43,16.4-6.48,3.48-12.51,6.03-15.4,5.23-.01,0-.02-.02-.04-.02,0-.04,0-.09,0-.13.05-.21.12-.5.22-.78.12-.26.24-.52.38-.77,2.05-3.59,2.59-3.91,6.36-7.51,4.51-3.9,7.44-6.02,13.83-9.94,6.12-3.1,2.91-10.53-3.32-8.06-9.05,3.1-19.87,8.39-23.11,8.42.04-.13.07-.25.11-.38.51-1.11,1.11-2.18,1.75-3.22.29-.59,1.84-2.7,2.39-3.46,4.71-5.96,12.36-10.97,16.15-12.14.33,1.09.83,2.1,1.9,2.66,2.93,1.86,6.91-1.21,5.88-4.52-2.85-13.62-18.55-1.99-24.55,3.09-3.01,2.74-7.55,7.66-10.02,12.6.35-3.72.72-7.45,1.14-11.16.58-4.87,1.26-9.72,1.86-14.58.23-2.85,1.04-5.74.48-8.59-.49-2.78-3.86-4.09-6.22-2.68-2.04,1.32-2.59,3.85-3.62,5.91-1.58,3.66-3.11,7.34-4.52,11.07-2.79,7.47-6.55,18.86-8.98,24.08-1.57-4.01-2.98-9.5-4.62-14.56-.75-2.1-1.6-4.38-3.58-5.61-1.9-1.2-4.14-.73-5.65.64-.32-1.07-.68-2.13-1.1-3.18-.82-1.89-2.56-3.84-4.82-3.34-2.74.18-4.37,3.65-2.92,5.95,1.99,2.72,2.74,10.89,3.29,14.66.7,4.2.61,8.61,1.82,12.69,1.04,2.86,4.94,3.7,7.06,1.5,1.44-1.47,1.73-3.58,1.93-5.54.06-.98.1-2.07.14-3.22.84,2.44,1.78,4.84,2.98,7.15,1.37,2.51,4.59,4.05,7.28,2.72,5.44-2.53,7.93-13.15,10.14-18.53.18-.53.36-1.07.55-1.61-.9,8.42-1.6,16.86-1.93,25.33-.13,3.5-.12,7,.01,10.5.11,1.14-.1,2.38.44,3.43.88,2.6,4.64,3.26,6.48,1.29,1.73-1.68,1-4.12,1.03-6.26-.08-2.7-.08-5.41,0-8.11.12-3.46.32-6.91.56-10.36,2.25,3.83,6.25,4.2,10.51,3.27-1.52,1.66-2.81,3.35-3.71,5-5.29,8.56.78,16.23,10.38,14.11,9.76-2.26,18.5-7.82,26.56-13.6,4.31-3.37,9.02-6.37,13.1-9.98,2.74-3.34-1.46-8.08-5.16-5.88Z"/>
      <path class="cls-1" d="M244.53,64.27c-5.27.13-5.26,7.86,0,8,5.27-.13,5.26-7.85,0-8Z"/>
    </g>
  </g>
</svg>