<?xml version="1.0" encoding="utf-8"?>
<!-- Generator: Adobe Adobe Illustrator 24.2.0, SVG Export Plug-In . SVG Version: 6.00 Build 0)  -->
<svg version="1.1" xmlns="http://www.w3.org/2000/svg" xmlns:xlink="http://www.w3.org/1999/xlink" x="0px" y="0px"
	 width="939.69px" height="153.58px" viewBox="0 0 939.69 153.58" style="enable-background:new 0 0 939.69 153.58;"
	 xml:space="preserve">
<style type="text/css">
	.st0{display:none;}
	.st1{display:inline;}
	.st2{fill:#06DBDB;}
	.st3{fill:#DB0606;}
</style>
<g id="Layer_5">
</g>
<g id="The_work" class="st0">
</g>
<g id="Their_exp" class="st0">
</g>
<g id="share-yours">
</g>
<g id="Main_show">
	<g>
		<path class="st3" d="M81.72,80.7c-3.16-12.89-6.23-25.83-8.44-38.93c-0.9-5.56-0.94-5.86-1.62-11.69
			c-0.15-2.83-0.27-5.67-0.17-8.5c0.16-1.2,0.31-2.41,0.47-3.61c0.19-0.99,0.36-2,0.06-2.99c-0.72-2.89-4.72-4.04-6.79-1.83
			c-1.15,1.08-1.21,2.71-1.42,4.17c-0.17,1.4-0.27,2.8-0.32,4.2c-1.34,10.23-2.52,20.49-3.09,30.79
			c-0.44,11.12-2.23,25.66-5.02,29.72c-3.16-4.91-4.22-7.74-5.83-11.58c-1.7-4.59-3.02-9.31-4.23-14.05
			c-1.14-4.67-2.25-9.35-3.08-14.08c-0.55-1.93-0.15-4.28-1.42-5.91c-2.51-3.49-8.19-0.65-7,3.49c2.17,13.45,5.13,27.04,10.91,39.44
			c1.9,3.64,3.55,7.83,7.09,10.18c4.31,2.53,9.22-0.44,11.06-4.62c3.87-8.74,4.6-18.32,5.18-27.84c1.64,7.89,3.49,15.73,5.39,23.56
			c3.83,17.25,11.18,33.9,2.07,41.22c-10.68,8.86-30.13,5.29-45.87-7.1c-5.87-4.62-15.83-13.39-19.62-22.37
			c-0.22-0.54-0.6-1.53-0.73-1.98c-0.47-1.43-0.87-2.88-1.22-4.34c-0.2-0.9-0.3-1.9-0.98-2.58c-1.51-2.29-5.31-1.96-6.59,0.4
			c-1.13,1.96-0.12,4.16,0.33,6.17c2.79,10.88,10.64,19.54,18.85,26.83c13.71,12.06,32.73,21.82,51.26,16.27
			c12.72-3.91,18.71-14.04,16.57-27.09C86.38,97.46,83.7,89.14,81.72,80.7z"/>
		<path class="st3" d="M101.51,48.98c1.49-3.47-2.54-7.71-6.49-4.43c-4.35,2.94-6.41,7.87-7.95,12.7
			c-2.07,6.72-3.44,13.89-2.06,20.88c1.22,5.48,4.06,12.26,9.41,14.78c5.17,2.32,10.75-1.41,13.23-5.95
			c3.94-7.29,3.34-16.06,1.92-23.96C108.69,57.73,106.32,51.68,101.51,48.98z M101.6,81.03c-0.8,1.92-0.63,1.99-2.4,3.88
			c-0.1,0.09-0.18,0.15-0.25,0.21c-0.23,0.14-0.46,0.27-0.62,0.36c-0.17,0.06-0.33,0.1-0.5,0.14c-0.05,0-0.09,0-0.14,0
			c-0.04-0.01-0.08-0.02-0.12-0.03c-0.1-0.06-0.22-0.13-0.36-0.22c-0.19-0.18-0.49-0.46-0.72-0.73c-0.92-1.26-1.73-2.6-2.38-4.01
			c-0.06-0.13-0.11-0.26-0.17-0.39c-0.26-0.76-1.1-3.18-1.13-3.88c-0.08-0.4-0.14-0.81-0.2-1.21c-0.01-0.09-0.02-0.18-0.03-0.3
			c-0.42-6.76,0.39-9.13,2.51-16.38c0.66-1.59,0.97-2.56,1.26-3.3c0.49,0.35,1.03,0.64,1.53,0.99c0.05,0.04,0.1,0.08,0.16,0.13
			c0.45,0.38,0.85,0.8,1.23,1.25C102.65,63.06,103.65,74.69,101.6,81.03z"/>
		<path class="st3" d="M138.57,37.93c-2.18-1.35-5.29-0.13-5.93,2.37c-2.11,15.7-2.1,29.36-5.45,42.6
			c-0.67,2.14-1.18,3.28-1.62,3.97c-2.28-5.61-2.89-14.23-3.02-23.2c-0.03-2.47,0.01-4.95,0.09-7.42c-0.05-1.32,0.34-2.78-0.28-4
			c-1.53-4-7.71-2.73-7.66,1.54c-0.23,7.8-0.33,15.64,0.63,23.39c0.63,4.94,1.41,10,3.57,14.54c1.91,3.78,6.67,5.34,10.23,2.81
			c3.68-2.59,5.16-7.17,6.27-11.34c2.72-12.52,3.08-25.39,4.71-38.07c0.05-0.32,0.12-0.93,0.18-1.54
			C141.19,41.68,140.49,39.07,138.57,37.93z"/>
		<path class="st3" d="M308.74,73.32c-2.08-0.51-4.1,0.73-6.05,1.31c-4.71,1.81-9.33,3.86-13.86,6.08
			c-8.45,4.43-22.13,9.97-26.31,9.2c-0.21-0.04-0.41-0.1-0.62-0.15c0.42-1.45,1.01-2.12,4.36-5.43
			c8.04-7.42,17.59-12.41,28.57-16.17c2.83-1.57,2.78-6.05-0.35-7.22c-2.03-0.88-4.33,0.2-6.4,0.49c-3.55,0.78-7.08,1.66-10.6,2.56
			c-2.25,0.57-4.81,1.23-6.99,1.73c4.84-3.55,13.29-8.14,19.1-9.95c2.1-0.76,4.25-1.39,6.44-1.84c1.36-0.37,2.98-0.26,4.08-1.24
			c3.49-2.51,0.65-8.19-3.49-7c-8.79,1.5-17.09,5.19-24.8,9.58c-2.87,1.81-5.73,3.7-8.36,5.85c3.42-7.35,0.18-16.47-5.78-21.55
			c-7.97-7.08-21.2-6.22-28.49,1.44c-1.97,2.02-3.48,4.31-4.66,6.76c-0.31-0.08-0.64-0.13-0.99-0.13c-2.97,0.01-4.65,2.86-4.2,5.52
			c-0.25,0.51-0.41,1.09-0.4,1.76c-0.11,2.84,0.05,6.47,0.35,10.28c-0.15-0.22-0.31-0.43-0.51-0.62c-1.07-1.07-2.51-1.23-3.95-1.23
			c-0.53-0.03-1.07-0.04-1.61-0.07c-4.11-13.04-6.88-26.04-6.48-38.94c-0.01-1.71-0.17-3.63-1.43-4.91
			c-1.56-1.62-4.31-1.51-5.81,0.13c-0.82,0.74-1.25,1.74-1.64,2.74c-0.32,0.77-0.9,2.17-1.08,2.63c-1.99,4.89-3.92,9.8-5.77,14.75
			c-2.25,5.87-4.3,11.48-6.32,16.92c-0.93,1.97-1.83,3.96-2.72,5.94c-4.25-0.09-8.49-0.2-12.74-0.33c-5.26,0.12-5.27,7.85,0,8
			c3.09,0.09,6.18,0.16,9.27,0.24c-0.75,1.73-1.49,3.47-2.23,5.2c-1.22,2.88-2.45,5.75-3.6,8.66c-0.61,1.58-1.55,3.42-0.7,5.07
			c1.43,3.44,6.02,3.07,7.57-0.13c3.08-6.04,5.76-12.27,8.27-18.58c4.52,0.09,9.05,0.18,13.57,0.23c2,0.03,4.01,0.07,6.01,0.13
			c3.9,11.47,8.55,22.72,12.86,34.01c0.28,0.77,0.59,1.53,0.84,2.31c-0.39,1.59,0.12,3.4,1.82,4.39c2.1,1.25,5.22,0.26,6.04-2.08
			c0.7-1.56,0.21-3.4-0.32-4.95c-0.7-1.91-1.44-3.82-2.16-5.72c-1.3-3.35-2.62-6.71-3.93-10.06c0.33,0.55,0.77,1.03,1.38,1.4
			c1.89,1.09,4.37,0.45,5.47-1.44c1.09-2.09,0.21-4.46-0.16-6.72c-0.06-0.81-0.12-1.84-0.27-3.5c-0.34-4.61-0.44-8.92-0.25-12.83
			c2.15,3.28,4.45,6.61,6.48,8.97c5.46,6.99,11.74,13.27,17.64,19.88c1.77,2,3.51,4.03,5.16,6.12c0.93,1.24,1.69,2.79,3.33,3.16
			c2.46,0.73,5.09-1.29,5.06-3.86c0.01-0.86-0.3-1.61-0.74-2.31c3.54-0.37,7.02-1.56,10.35-2.71c6.95-2.43,13.48-5.85,20.12-9.01
			c4.86-2.22,5-2.28,9.31-3.94c2.36-0.92,5.97-1.24,6.19-4.41C312,75.78,310.59,73.85,308.74,73.32z M190.89,62.72
			c0.36-0.94,0.71-1.87,1.06-2.81c1.66-3.52,3.39-7,5.23-10.43c0.77-1.7,2.22-3.2,2.49-5.07c0.21-1.21-0.14-2.23-0.79-3
			c0.23-0.59,0.46-1.19,0.68-1.78c1.09,7.96,2.95,15.71,5.24,23.34C200.17,62.89,195.53,62.81,190.89,62.72z M215.95,71.39
			c0.53-0.02,1.06-0.11,1.55-0.34c1.04-0.35,1.76-1.16,2.13-2.12c0.47,4.78,1.09,9.53,1.6,13.08c0.02,0.22,0.03,0.45,0.06,0.67
			c0.26,1.43,0.25,3.12,0.61,4.61C219.83,81.98,217.81,76.68,215.95,71.39z M234.39,59.92c-1.38-2.09-2.7-4.16-3.75-5.89
			c1.16-3.57,2.86-6.41,5.21-8.36c9.64-7.24,21.29-0.45,21.02,9.83c-0.55,2.54-0.16,1.58-1.74,4.04c-0.09,0.09-0.19,0.19-0.32,0.32
			c-0.13,0.12-0.24,0.21-0.34,0.3c-6.63,4.4-12.38,4.37-18.23,1.01C235.67,60.87,235.04,60.43,234.39,59.92z M242.74,71.48
			c0.44,0.03,0.87,0.05,1.31,0.06c4.87-0.11,10.22-1.42,14.29-4.33c-0.66,2.27-0.1,4.73,2.24,6.2c1.5,0.89,3.25,1.14,4.99,1.1
			c-3.86,3.13-8.1,6.36-10.43,10.8C250.95,80.75,246.68,76.26,242.74,71.48z"/>
		<path class="st3" d="M439.3,68.14c-1.8,0.57-2.93,2.29-4.47,3.32c-0.51,0.4-1.03,0.8-1.54,1.2c0.23-0.19,0.38-0.31,0.48-0.38
			c-0.14,0.11-0.37,0.28-0.66,0.49c-5.11,3.83-10.72,6.9-16.5,9.61c-2.97,1.47-7.41,2.89-8.07,2.89c-0.01,0-0.02,0-0.02,0
			c1.52-4.44,9.97-12.98,15.19-16.6c2.23-1.55,4.48-3.07,6.84-4.42c2.5-1.31,5.51-2.96,4.62-6.31c-0.79-2.95-4.15-3.52-6.64-2.36
			c-2.1,0.72-4.2,1.45-6.28,2.24c-3.81,1.41-9.4,3.91-13.8,5.59c0.44-0.44,0.93-0.93,1.51-1.53c3.23-2.99,2.82-2.64,5.52-4.74
			c5.42-3.62,6.91-4.52,12.32-5.84c0.2-0.03,0.29-0.05,0.33-0.06c1.23-0.1,2.51,0,3.63-0.5c4-1.52,2.73-7.71-1.54-7.66
			c-11.57,0.52-21.65,8.13-29.19,16.62c1.28-5.29,2.09-11.41,3.17-18.05c0.78-5.06,1.81-10.08,2.66-15.14
			c0.27-2.32,1.25-4.87,0.06-7.06c-1.6-2.86-5.89-2.4-7.41,0.32c-2.31,3.84-4.65,14.54-5.61,22.19c-1.01,6.87-1.72,13.77-2.11,20.7
			c-1.68,4.38-4.07,7.22-8.05,7.92c-2.03,0.43-4.41,0.67-6.9,0.72c-0.35-7.74-0.56-15.48-0.26-23.22c-0.12-5.26-7.86-5.27-8,0
			c-0.33,7.49-0.09,14.98,0.25,22.47c-2.46-1.59-5.73-2.64-7.97-0.93c-0.1-6.81-0.33-13.62,0.1-20.42c0.26-3.12,0-2.31,0.41-3.84
			c0.24-0.41,0.4-0.85,0.41-1.35c0.1-0.58,0.06-1.12-0.06-1.61c2.79-0.03,5.58-0.06,8.37-0.1c4.61-0.08,9.21-0.14,13.82-0.21
			c2.39-0.25,5.3,0.61,7.19-1.25c1.84-1.76,1.4-5.03-0.81-6.28c-1.53-0.91-3.38-0.42-5.06-0.49c-2.97,0.06-5.94,0.08-8.91,0.13
			c-16.33,0.28-32.67,0.38-49,0.22c-1.71-0.02-3.65-0.22-4.92,1.17c-2.51,2.35-0.62,6.94,2.83,6.83c9.57,0.08,19.13,0.09,28.7,0.04
			c-0.05,0.12-0.12,0.24-0.17,0.37c-0.61,2.38-0.69,4.86-0.82,7.3c-0.48,8.51,0.03,17.02-0.02,25.53c-0.02,1.62-0.07,3.24-0.12,4.86
			c-0.16,1.29,0.18,2.65,1.14,3.57c1.76,1.84,5.03,1.4,6.28-0.81c0.88-1.58,0.5-3.49,0.65-5.22c0.01-0.57,0.01-1.13,0.02-1.7
			c1.22,0.92,2.94,1.51,4.71,1.9c0.89,1.11,1.72,2.95,2.85,6.21c0.49,1.62,0.88,3.27,1.2,4.93c0.25,1.23,0.62,2.62,1.74,3.33
			c1.57,1.38,4.39,1.02,5.56-0.72c1.33-1.48,0.76-3.6,0.7-5.4c-0.12-2.43-0.25-4.86-0.38-7.29c6.21-0.06,10.78-1.28,14.21-3.47
			c0.01,0.95,0.01,1.91,0.02,2.86c0.3,5.9-0.13,12.02,1.12,17.79c1.52,4,7.71,2.74,7.66-1.54c-0.78-7.48-0.79-15.02-0.79-22.53
			c0.64,0.33,1.35,0.55,2.09,0.6c2.22,0.32,4.44-0.33,6.55-1.03c-2.55,2.76-4.9,5.74-6.45,9.17c-2.69,5.08-1.32,11.5,5.16,12.06
			c4.93,0.36,9.47-2.09,13.88-3.96c6.48-3.01,12.72-6.57,18.34-11.01c1.99-1.8,5.28-3.22,5.34-6.26
			C444.42,69.42,441.77,67.43,439.3,68.14z"/>
		<path class="st3" d="M433.78,72.27C433.94,72.15,433.97,72.13,433.78,72.27L433.78,72.27z"/>
		<path class="st3" d="M595.91,66.45c1.54,0.01,3.15-0.97,3.66-2.46c0.88-1.76,0.02-4.02-1.64-4.99c-1.88-0.93-4.14-0.63-6.18-0.78
			c-3.02-0.02-6.03,0.06-9.04,0.18c0.02-4.32,0.2-8.63,0.57-12.93c0.47-5.14,0.49-5.22,1.26-10.81c0.23-2.27,0.79-4.59,0.28-6.85
			c-1.16-3.78-5.18-4.65-7.87-1.75c-3.3,4.28-6.25,8.84-9.11,13.42c-1.37,2.22-2.67,4.47-3.94,6.75c-2.8,4.66-5.31,9.5-7.81,14.33
			c-3.26,0.33-6.52,0.66-9.77,0.97c0.02-0.12,0.04-0.24,0.05-0.36c2.3-15.32,6.11-30.33,10.41-45.19
			c0.85-4.24,4.48-11.11,1.46-14.84c-1.67-1.72-4.56-1.43-6.06,0.37c-8.19,10.8-14.22,23.2-19.17,35.79
			c-4.44,11.25-9.48,31.85-12.52,38.52c-0.7-1.15-1.32-2.34-1.96-3.53c-3.69-7.3-7.69-20.96-11.13-31.81
			c-1.44-4.61-2.89-9.21-4.62-13.72c-1.37-3.13-2.43-7.31-6.05-8.46c-2.66-0.75-5.28,1.15-5.81,3.78
			c-0.9,9.53-0.04,19.15,0.15,28.72c-0.34,6.11-0.22,12.26,0,18.42c-0.03,6.68-0.01,13.37,0.22,20.05c0.22,2.41-0.27,5.54,1.92,7.15
			c1.57,1.38,4.39,1.02,5.56-0.72c1.02-1.15,0.94-2.85,1-4.3c0.02-2.48-0.02-4.97-0.1-7.45c-0.16-4.96-0.44-9.93-0.64-14.89
			c0.19-5.83,0.12-11.65-0.01-17.47c0.07-1.28,0.16-2.55,0.28-3.83c0.27-2.18,0.4-3.47,0.55-4.71c3.2,10.26,6.7,22.08,10.7,31
			c1.68,3.38,3.21,7.11,6.14,9.6c2.56,2.19,6.49,1.65,8.69-0.8c2.91-3.51,4.1-8.09,5.55-12.33c1.63-5.29,3.11-10.63,4.71-15.94
			c2.83-9.26,5.5-16.82,8.95-24.3c-1.51,5.88-2.9,11.79-4.03,17.75c-0.88,4.76-1.66,9.55-2.32,14.35c-1.02,0.02-2.02,0.44-2.74,1.16
			c-2.23,2.09-0.98,5.95,1.76,6.7c-1.91,17.02-2.39,34.2-1.31,51.3c0.4,6.87,1.05,13.72,1.97,20.54c0.31,2.34,0.65,4.67,1.02,7
			c0.18,1.02,0.26,2.15,1.01,2.93c2.87,3.7,8.51,0.33,6.87-4.09c-2.3-13.66-3.54-30.62-3.44-47.33c-0.03-3.89,0.16-8.67,0.47-13.61
			c1,1.89,3.61,2.91,5.6,1.67c0.63-0.34,1.06-0.86,1.43-1.44c0,0,0.01,0,0.01,0c0.02-0.04,0.04-0.07,0.06-0.1
			c0.37-0.6,0.66-1.25,1.02-1.84c1.26-2.28,2.55-4.55,3.86-6.81c2-3.44,3.88-6.94,5.72-10.46c4.44-0.44,8.88-0.84,13.32-1.15
			c0.08,2.28,0.18,4.55,0.32,6.82c0.78,9.15,2.2,18.28,5.19,26.99c1.3,3.29,2,7.04,4.36,9.77c2.85,2.87,7.75,0.04,6.69-3.89
			c-0.17-0.66-0.53-1.2-0.97-1.7c-0.1-0.19-0.18-0.35-0.24-0.48c-0.19-0.47-0.37-0.94-0.54-1.41c-0.86-2.27-1.64-4.58-2.38-6.89
			c-1.49-4.87-2.5-9.85-3.32-14.87c-0.55-4.91-0.92-9.85-1.11-14.79c3-0.12,5.99-0.19,9-0.18C593.2,66.24,594.56,66.28,595.91,66.45
			z M550.55,71.08c-1.99,3.68-4.01,7.34-6.02,11.02c-0.12,0.26-0.27,0.51-0.41,0.76c0.35-4.64,0.77-9.23,1.19-13.18
			c2.12-0.22,4.23-0.44,6.35-0.66C551.3,69.7,550.93,70.39,550.55,71.08z M565.87,59.6c1.77-3.42,3.55-6.82,5.43-10.17
			c0.22-0.37,0.43-0.75,0.66-1.12c0.76-1.28,1.61-2.51,2.46-3.72c0.34-0.51,0.77-1.01,1.07-1.56c-0.5,5.26-0.73,10.54-0.76,15.82
			C571.78,59.06,568.82,59.32,565.87,59.6z"/>
		<path class="st3" d="M604.33,71.52c-0.42-4.26-6.7-4.65-7.79-0.53c-1.17,6.18-1.63,12.51-1.27,18.8c-0.44,6.51,8.63,6.6,8.02,0.18
			c-0.3-4.59-0.07-9.21,0.44-13.78c-0.05,0.35-0.1,0.71-0.14,1.06C603.72,75.33,604.51,73.42,604.33,71.52z"/>
		<path class="st3" d="M603.43,33.47c-5.27,0.13-5.26,7.85,0,8C608.71,41.34,608.69,33.61,603.43,33.47z"/>
		<path class="st3" d="M646.65,50.29c-0.35-3.33-0.59-6.68-0.71-10.03c-0.06-1.75,0.26-3.72-1.18-5.03
			c-2.35-2.51-6.94-0.62-6.83,2.83c-0.04,5.78,0.62,11.55,1.31,17.29c1.94,16.38,5.3,27.65,5.17,43.12
			c-0.13,0.88,0.04,0.71-0.49,2.34c-2.71-3-3.94-5.28-7.2-10.01c-5.31-8.17-10.2-16.61-14.42-25.39c-1.7-3.57-3.29-7.19-5.09-10.71
			c-1.32-3.07-3.94-6.94-7.72-4.91c-2.61,1.52-2.35,4.77-2.17,7.38c0.15,2.95,0.31,5.91,0.52,8.86c0.22,3.02,0.41,6.05,0.56,9.08
			c-0.13,2.64-0.26,5.27-0.37,7.91c-0.1,3.08-0.12,6.17-0.04,9.25c0.06,2.41,0,5.71,2.71,6.69c2.07,1.03,4.85-0.36,5.4-2.59
			c0.49-2.08,0.37-4.28,0.51-6.41c0.14-4.92,0.03-9.83-0.2-14.75c0.06-1.12,0.12-2.24,0.18-3.36c0.73,1.48,1.48,2.95,2.27,4.4
			c4.46,8.46,9.49,16.62,14.96,24.47c2.24,2.85,4.11,6.23,7.24,8.19c4.37,2.47,8.88-0.5,10.26-4.93c2.49-7.58,0.54-15.8-0.26-23.53
			C649.53,69.69,647.41,58.09,646.65,50.29z"/>
		<path class="st3" d="M754.64,32.82c-8.62,0.27-16.89,3.3-24.72,6.72c-6.93,3.19-13.76,6.6-20.27,10.59
			c-3.8,2.36-7.51,4.87-11.05,7.62c-2.67,2.08-5.8,4.31-6.57,7.8c-0.59,2.46,0.58,5.08,2.7,6.43c2.43,1.54,5.47,1.61,8.25,1.3
			c2.47-0.26,4.9-0.76,7.31-1.38c-0.69,0.5-1.38,0.99-2.06,1.5c-5.03,3.77-9.92,7.74-14.35,12.21c-2.46,2.54-5.24,5.09-6.29,8.57
			c-1.61,6.29,3.94,10.31,9.82,8.78c7.82-1.82,14.85-6.08,21.99-9.61c11.25-5.87,22.37-11.99,33.55-18.01
			c1.67-0.94,3.84-1.67,4.34-3.75c0.73-2.47-1.29-5.09-3.86-5.06c-1.59-0.02-2.84,1.1-4.21,1.74c-2.22,1.19-4.43,2.39-6.64,3.59
			c-7.11,3.84-14.2,7.73-21.35,11.5c-6,3.17-11.99,6.36-18.15,9.21c-1.16,0.57-4.7,2.03-7.1,2.55c4.02-4.77,8.79-8.83,13.6-12.77
			c7.34-5.77,24.79-17.52,36.72-23.31c0.47-0.2,0.81-0.36,1.1-0.49c1.73-0.62,3.46-1.25,5.11-2.05c2.02-1.11,2.65-4.12,1.12-5.88
			c-1.54-2.25-4.46-1.62-6.55-0.58c-0.89,0.34-1.76,0.71-2.63,1.1c-1.58,0.59-3.17,1.18-4.75,1.79
			c-11.34,4.26-28.84,11.89-37.86,12.41c0.21-0.17,0.44-0.36,0.7-0.58c1.8-1.46,5.54-4.18,9.72-6.8c11.15-6.76,20.58-11.64,31.07-15
			c2.75-0.76,5.52-1.51,8.34-1.98c0.04,0,0.07-0.01,0.11-0.01c1.94-0.21,4.22,0.24,5.7-1.32C759.97,37.31,758.09,32.7,754.64,32.82z
			"/>
		<path class="st3" d="M792.63,87.07c0.05-0.06,0.11-0.14,0.17-0.22c-0.01,0.02-0.02,0.03-0.04,0.04
			C792.72,86.95,792.68,87.01,792.63,87.07z"/>
		<path class="st3" d="M935.69,46.23c-1.5,0.18-3.02,0.12-4.53,0.12c-6.21-0.08-12.42-0.21-18.63-0.32
			c-13.75-0.34-27.49-0.65-41.24-1.01c0.18-6.49,0.5-12.51,1.06-17.29c-0.44-4.25-6.69-4.66-7.79-0.53
			c-0.82,5.83-1.18,11.71-1.33,17.6c-2.4-0.07-4.79-0.13-7.19-0.2c-4.09-0.19-8.18-0.37-12.26-0.66c-1.96,0.03-4.09-0.76-5.95,0.02
			c-3.99,1.53-2.75,7.7,1.54,7.66c7.9,0.65,15.82,0.98,23.74,1.2c-0.02,3.27-0.02,6.54-0.04,9.81c0.01,6.75-0.03,13.5-0.33,20.24
			c-0.23,2.89-0.18,4.37-0.3,5.76c-5.29-5.48-10.4-11.14-15.61-16.7c-3.08-3.33-6.06-6.75-9.24-9.98c-0.47-0.46-0.95-0.94-1.43-1.41
			c-0.38-1.43-1.38-2.64-3.34-3.4c-0.44-0.1-0.87-0.13-1.28-0.12c-0.23-0.11-0.46-0.22-0.71-0.31c-5.37-1.23-7.31,3.35-7.14,7.93
			c-0.03,0.39-0.04,0.8-0.06,1.23c-0.92,2.66-1.58,5.6-2,8.35c-0.32,0.4-0.63,0.77-0.93,1.09c-8.49,10.16-28.03,18.86-30.64,16.77
			c0-0.08-0.01-0.16-0.01-0.24c0.03-0.16,0.06-0.31,0.1-0.47c0.06-0.2,0.14-0.4,0.21-0.6c0.62-1.3,1.4-2.52,2.27-3.67
			c-0.25,0.32-0.34,0.4,0.13-0.18c0.06-0.08,0.11-0.16,0.17-0.24c-0.05,0.07-0.09,0.13-0.14,0.19c0.01-0.01,0.02-0.02,0.03-0.04
			c2.58-3.15,5.52-5.97,8.42-8.82c3.12-2.95,6.32-5.8,9.6-8.56c2.66-2.02,5.36-3.98,8.19-5.75c1.7-1.17,3.98-1.93,4.6-4.1
			c0.88-3.06-2.2-5.85-5.18-4.89c-1.95,0.84-10.13,3.8-15.23,5.7c-4.06,1.46-8.11,3.02-12.33,3.93c3.07-3.14,6.43-5.97,9.89-8.67
			c5.76-4.32,11.86-8.18,18.38-11.25c4.85-2.26,5.34-2.48,10.86-4.46c2.03-0.82,4.42-1.04,6.23-2.27c3.5-2.5,0.65-8.19-3.49-7
			c-10.93,3.27-21.43,8.03-30.92,14.39c-5.37,3.78-10.64,7.76-15.37,12.34c0.55-1.79,1.12-3.58,1.75-5.35
			c1.6-4.63,3.21-9.26,4.86-13.88c0.41-1.51,1.49-2.98,1.17-4.58c-0.09-1.57-1.39-2.92-2.87-3.33c-3.33-0.78-4.83,1.82-5.59,4.61
			c-1.07,2.93-2.1,5.87-3.12,8.81c-2.17,6.16-4.29,12.33-5.95,18.65c-1.51,6.05-2.6,12.19-3.78,18.31
			c-1.47-5.75-3.12-12.28-4.13-16.92c-0.88-4.15-1.01-4.53-1.18-7.04c-0.13-1.58-0.03-3.36-1.3-4.52c-2.35-2.51-6.94-0.62-6.83,2.83
			c0.33,7.04,2.3,13.85,3.92,20.67c1.78,6.58,3.08,13.34,5.27,19.79c0.93,2.2,3.71,3.35,5.89,2.29c4.47-2.01,5.08-11.02,6.17-15.38
			c0.65-3.73,1.35-7.44,2.15-11.14c0.11,0.08,0.21,0.18,0.33,0.25c4.03,2.19,9.11,1.03,13.77-0.48c-1.64,1.54-3.26,3.11-4.86,4.69
			c-5.5,5.57-15.54,16.14-6.59,22.99c7.49,4.7,19.25-2.15,26.06-5.96c3.42-2.07,6.73-4.4,9.78-7.02c0.2,1.7,0.53,3.39,1.29,4.93
			c1.28,2.49,4.54,3.73,7,2.17c4.49-3.19,2.56-9.55,2.46-14.22c-0.13-1.73-0.24-3.46-0.33-5.19c0.04-0.07,0.08-0.14,0.12-0.21
			c0.53-1.02,1.23-2.26,1.92-3.59c7.24,7.93,14.51,15.83,21.88,23.63c1.83,1.78,3.35,4.03,5.66,5.23c2.57,1.44,5.92,0.18,7.26-2.36
			c1.49-2.98,1.6-6.38,1.88-9.64c0.25-4.3,0.36-8.6,0.44-12.91c0.02-6.46,0.02-13.58,0.12-20.54c2.5,0.06,5,0.11,7.5,0.17
			c2.44,0.07,4.89,0.13,7.33,0.19c-1.66,12.66-1.62,25.67,0.61,38.2c1.53,4,7.71,2.73,7.66-1.54c-1.33-9.68-1.81-19.49-1.06-29.24
			c0.32-3.93,0.48-5.18,0.77-7.21c11.62,0.29,23.24,0.55,34.86,0.74c3.78-0.2,10.63,1.45,10.9-4.08
			C939.68,48.08,937.86,46.19,935.69,46.23z"/>
		<path class="st3" d="M914.64,85.03c-5.27,0.13-5.26,7.86,0,8C919.91,92.9,919.9,85.18,914.64,85.03z"/>
	</g>
</g>
</svg>
