<?xml version="1.0" encoding="UTF-8"?>
<svg id="Layer_2" data-name="Layer 2" xmlns="http://www.w3.org/2000/svg" viewBox="0 0 472.59 81.86">
  <defs>
    <style>
      .cls-1 {
        fill: #06dbdb;
      }
    </style>
  </defs>
  <g id="share-yours">
    <g>
      <path class="cls-1" d="M58.05,42.79c-12.15-6.65-26.67-10.14-34.34-16.53-5.13-4.76-5.31-7.8-1.2-11.39,2.7-2.63,13.6-5.95,20.05-5.81,5.54.26,7.05.53,11.13,2.64,3.15,1.75,7.36,6.05,9.09,9.04.58,1.37.96,2.98,2.39,3.73,2.92,1.85,6.91-1.21,5.88-4.52-1.8-5.29-5.86-9.43-10.1-12.91C50.84-1.24,36.5.34,24.97,4.53c-11.93,4.06-18.2,15.59-8.57,25.78,7.99,8.01,19.4,10.96,29.48,15.46.07.03.12.05.18.07,2.22.98,4.47,1.95,6.6,3.11-5.19,1.2-10.73,1.39-18.14,1.78-9.81.03-14.85.24-21.29-3.91-.11-.08-.19-.14-.26-.19-.02-.02-.04-.03-.06-.05-2.56-2.34-2.47-2.27-3.44-3.78-.75-1.49-.51-.63-1.25-3.52-.1-.52-.15-.79-.16-.83-.08-1.31.22-2.68-.35-3.88-.64-1.88-2.86-2.8-4.72-2.32C-1.06,33.45-.01,38.5.57,41.68c1.58,7.31,7.88,12.71,14.75,15.05,8,2.7,16.63,2.09,24.93,1.73,5.95-.62,12.21-.57,17.82-2.87,6-3.02,5.83-9.68-.01-12.8Z"/>
      <path class="cls-1" d="M99.94,56.83c-.1-.82-.19-1.63-.28-2.45-.54-5.09-.88-10.21-1.11-15.33-.02-.42-.04-.85-.05-1.27.78-.02,1.57-.04,2.35-.07,1.26-.14,2.68-.21,3.67-1.1,2.29-1.52,1.97-5.31-.4-6.6-1.15-.68-2.37-.59-3.59-.29-.11,0-.23.01-.38.02-.66.02-1.32.02-1.99.04-.14-3.44-.25-6.88-.3-10.33.05-2.17.06-4.34.26-6.51.07-1.19.48-2.48-.14-3.58-1.53-4-7.71-2.73-7.66,1.54-.71,6.19-.42,12.43-.18,18.63,0,.1,0,.2.01.3-1.22,0-2.45,0-3.67-.02-1.65-.03-3.3-.07-4.96-.1-.09-7.25-.03-14.5.09-21.74-.08-1.84.71-3.83-.06-5.57-1.53-4-7.7-2.74-7.66,1.54-.67,8.5-.42,17.05-.3,25.57-3.96-.11-7.92-.25-11.88-.45-2.05-.1-4.09-.26-6.13-.42-1.04-.06-2.15-.33-3.1.22-4,1.53-2.74,7.7,1.54,7.66,6.55.53,13.12.84,19.69,1.03.22,9.23.48,18.53,2.44,27.56.78,3.57,5.55,4.5,7.45,1.3.98-1.57.33-3.18-.08-4.8-.71-4.36-.56-3.62-.94-6.88-.45-5.66-.73-11.33-.9-17.01,2.94.05,5.87.08,8.81.11.22,4.84.48,9.67.95,14.49.2,2.05.41,4.1.7,6.14.13.9.31,1.88.96,2.56,1.79,2.66,6.25,1.71,7-1.36.27-.9.1-1.8-.14-2.69-.01-.07-.02-.1-.03-.16Z"/>
      <path class="cls-1" d="M225.24,37.6c-2.53.25-4.99,2.36-7.37,3.35-7.49,3.9-14.91,7.93-22.57,11.48-.14.06-.31.13-.49.21,3.91-5.92,8.51-10.42,15.35-15.83,1.73-1.32,3.47-2.64,5.22-3.94,3.05-2.32,8.28-5.3,4.56-9.52-2.4-2.45-5.67-.38-8.22.7-4.03,1.79-8,3.7-12.01,5.51-2.92,1.19-6.69,3.01-11.79,4.47,3.49-3.59,5.89-4.98,9.44-7.52,3.95-2.62,8.08-4.97,12.41-6.91,1.14-.53,2.3-1,3.46-1.49,1-.46,2.2-.73,2.8-1.74,2.75-3.32-1.46-8.09-5.16-5.88-7.6,3-14.79,6.94-21.37,11.79-.07.05-.14.11-.21.16.11-2.7-.65-5.41-2.47-7.49-5.82-6.94-16-6.45-24.09-4.73-4.27.77-8.47,2.7-11.75,5.59-1.61-3.85-7.65-2.57-7.6,1.66-.04,3.53.08,7.06.33,10.58-3.62-.01-7.24.03-10.86.13-1.07-3.78-1.94-7.6-2.68-11.46-.65-2.73-.83-5.68-2.29-8.13-1.42-2.35-4.85-3.25-7.04-1.47-1.98,1.65-2.74,4.33-3.97,6.53-.4.83-.77,1.68-1.16,2.51-1.99,4.01-3.78,8.13-5.61,12.21-.1.24-.21.49-.32.73-.43.03-.85.11-1.23.33-2.7,1.03-2.99,4.17-1.59,6.09-2.64,6.05-5.37,12.39-6.46,15.42-.7,2.59,1.2,5.51,3.99,5.5,2.9-.03,4.42-2.93,5.56-5.2,2.21-4.67,3.95-9.55,5.74-14.4,3.73-.17,7.46-.33,11.19-.48,2.46,7.69,5.28,15.27,8.6,22.63,1.01,2.27,2,4.54,2.96,6.82.64,1.52,1.35,3.36,3.04,3.94,3.69,1.7,7.04-2.89,4.82-5.95-4.43-9.7-7.74-17.42-11.1-27.69,3.08-.07,6.16-.1,9.24-.08.49,3.64,1.13,7.25,1.93,10.84.88,3.16.99,6.72,2.68,9.56,1.21,1.78,4.02,2.28,5.67.83,1.55-1.05,1.78-3.02,1.36-4.72-.38-1.9-.73-3.8-1.05-5.71-.5-3.64-1.22-7.41-1.76-10.62,7.16,8.16,13.96,16.66,22.05,23.94,2.08,1.9,4.19,3.77,6.34,5.59,2.23,2.19,5.4,2.98,7.35-.03.8-1.44.66-2.84-.04-4.01.83.17,1.71.2,2.61.03,6.43-.92,12.02-4.71,17.82-7.4,4.36-2.23,8.67-4.55,13.01-6.8,1.91-1.2,4.39-1.79,5.88-3.53,2.13-2.43.04-6.51-3.14-6.42ZM118.87,28.72c.89-2.23,2.39-5.59,3.82-8.66.58,2.69,1.26,5.74,1.94,8.41-1.23.05-2.45.1-3.68.16-.69.03-1.39.06-2.08.09ZM162,18.64c10.01-2.84,18.42-1.65,19.34,3.05,0,.19,0,.44-.02.73,0,.01,0,.02,0,.03-.04.18-.09.42-.18.71-.07.21-.13.39-.18.53-.14.3-.31.59-.5.87-.2.23-.47.52-.72.72-.62.5-3.43,2.35-7.61,3.1-1.66.16-3.33.08-4.98-.11-.07,0-.12-.02-.2-.03-5.49-.95-7.99-2.2-12.55-4.48,1.61-2.31,4.24-4.01,7.59-5.13ZM189.54,46.3c-1.88,2.68-3.99,5.35-4.97,8.52-.25,1.01-.22,1.95,0,2.81-2.39-2.1-4.76-4.23-7.03-6.46-5.03-4.82-9.52-10.15-14.03-15.45,3.37.75,6.81,1.01,10.32.46,1.3-.26,2.63-.61,3.94-1.04-.59,3.51,1.86,6.92,5.89,7.27,3.7.3,7.25-.7,10.71-2.03-1.72,1.87-3.34,3.84-4.82,5.91Z"/>
      <path class="cls-1" d="M292.08,25.37c-1.21-3.89-2.45-7.78-3.28-11.78-.14-.7-.28-1.39-.41-2.09-.09-.72-.27-1.43-.63-2.08-.72-1.23-2.12-2.04-3.55-2.04-1.76-.02-3.41,1.23-3.86,2.94-.08.66-.21,1.32-.34,1.97-.49,2.45-1.04,4.89-1.63,7.32-1.66,6.43-3.17,12.92-5.24,19.23-.82-4.92-1.04-7.43-1.71-12.93-.54-3.43-.42-7.15-2.12-10.27-.06-.08-.11-.14-.16-.21-.25-.44-.58-.8-.99-1.07-.77-.7-1.94-1.01-2.96-.79-2.75.19-4.37,3.65-2.92,5.95.05.06.1.13.15.19,1.38,6,1.75,15.43,3.51,24.23.71,3.32,1.09,7.91,4.96,8.98,4.56,1,7.09-3.89,8.4-7.47,2.02-5.68,3.74-11.48,5.25-17.33,1.77,5.34,3.85,10.57,6.17,15.69,2.92,6.83,3.99,8.68,6.11,15.49,1.02,4.46,1.28,4.27,1.06,7.74-.54,2.6-.26,1.59-1.3,3.52-.22.26-.44.51-.7.73-.46.32-.93.62-1.42.9-2.54,1.27-.54.56-3.46,1.3-.66.43-12.17.33-13.27-.3-7.37-1.49-12.62-3.55-17.34-5.88-5.04-2.67-5.45-3.04-9.16-6.53-3.32-3.52-3.25-3.13-5.47-7.19-.1-.25-.16-.39-.2-.46-.22-.6-.4-1.22-.52-1.85-.02-.44-.01-.88.02-1.32,0,0,0,0,0,0,.09-.44.22-.86.37-1.29.18-.33.61-1.27.6-1.8.58-2.72-2.39-5.2-4.99-4.39-2.01.52-2.81,2.49-3.41,4.28-3.13,10.53,7.6,20.51,15.58,25.75,9.47,5.31,20.12,9.01,31.04,9.31,13.71.76,24.15-5.88,21.18-20.8-3.15-14.05-9.98-23.66-13.35-35.63Z"/>
      <path class="cls-1" d="M318.09,18.1c-4.86-2.77-10.75-2.85-16.2-2.46-2.59-.06-4.56,2.59-3.86,5.06.08.3.2.57.32.82-2.3,8.93.06,24.15,7.72,29.34,5.56,3.32,11.4,1.36,15.43-3.31,1.9-2.15,2.86-4.91,3.73-7.6.85-3.02,1.54-6.23,1.09-9.37-.8-5.06-3.8-9.86-8.24-12.48ZM316.53,40.62s-.03.06-.04.1c-1.55,2.74-1.45,1.92-2.22,2.76-.53.36-1.07.69-1.64.98-.12.04-.28.08-.45.12-.12,0-.23.01-.35,0-.4-.1-.85-.24-1.17-.35-3.13-1.72-5.85-10.4-4.98-18.95.06-.36.15-.83.24-1.15.05-.23.12-.45.19-.68,7.53.04,10.08,2.49,11.57,5.79,1.02,2.82.74,2,.8,3.69,0,1.46-.54,4.15-1.94,7.7Z"/>
      <path class="cls-1" d="M351.5,16.77c-2.71-.55-5.2,2.38-4.39,4.99.94,2.12,1.56,4.37,1.98,6.65.6,3.24,1,13.2-1.37,16.89-.04.04-.35.4-.7.72-.27.19-.71.49-1.1.7-.07.02-.14.04-.22.06-.02,0-.03,0-.05,0-2.37-.67-2.85-1.16-5.37-5.75-1.85-2.97-4.23-15.54-4.51-19.1-.12-5.26-7.86-5.27-8,0,1.42,9.9,2.54,20.79,9.29,28.68,8.62,9.03,18.96,2.02,20.04-8.93.96-6.62.5-13.54-1.44-19.94-.73-2.06-1.55-4.84-4.15-4.98Z"/>
      <path class="cls-1" d="M447.21,41.95c-1.42-1.31-3.35-1.69-5.2-1.99-2.09-.4-4.2-.72-6.3-1.04-7.99-1.29-17.97-1.98-22.51-4.87-.14-.13-.28-.26-.42-.4.03-.05.06-.1.1-.15,3.56-3.9,15.45-9.44,18.39-9.41.43-.03.86-.04,1.29-.04.29.25.61.45.99.56,3.92,1.82,7.44-3.48,4.37-6.48-5.36-5.87-19.08,1.8-24.58,5.06-2.94,1.87-6.09,3.84-7.76,7.01-1.84,3.32-.6,7.58,2.33,9.84,3.67,2.96,8.49,3.9,13.02,4.75,4.14.69,8.29,1.23,12.44,1.85-6.48,1.4-15.25,2.66-20.61,3.13-3.18.34-6.37.61-9.57.76-1.8.12-3.87-.21-5.22,1.25-1.12,1.04-1.36,2.54-.98,3.86-4.96-6.03-9.98-12.01-15.26-17.75,4.79.96,9.77.76,14.42-1.05,11.45-4.01,14.73-15.35,4.98-23.46-5.16-4.63-12.38-5.66-19.06-6.13-5.94-.39-13.11.51-17.83,4.24-2.22-.32-4.75,1.17-4.71,3.91-.1,1.75-.18,3.51-.24,5.27-.14,1.22-.15,2.44-.09,3.67-.1,7.42.32,14.84,1.98,22.08.87,3.68,1.62,10.28,6.85,9.17,5.52-1.93,2.29-9.13,1.91-13.33-.38-2.26-.74-4.25-1.07-6.1,1.29,1.27,2.6,2.53,3.87,3.82,6.48,6.52,12.21,13.74,18.13,20.76,2,2.38,3.98,4.77,6.04,7.09,2.24,2.82,5.98,5.2,8.61,1.37,1.1-1.88.41-4.39-1.45-5.48-.06-.05-.12-.1-.18-.15-1.64-1.68-3.15-3.48-4.66-5.28.48.21,1.01.33,1.58.31,6.99-.16,13.94-1.02,20.87-1.9,5.11-.7,10.21-1.44,15.23-2.63,3.45-.85,7.08-1.8,9.87-4.1,2.44-1.99,2.81-5.78.45-7.99ZM369.54,23.5c-.71-.44-1.49-.96-2.31-1.41,0-.25,0-.51.01-.76.27-2.35,1.03-3.15,3.58-4.7.07-.03.11-.05.16-.07,4.36-1.51,4.29-1.22,9.23-1.42,5.42.2,6,.26,11.8,1.87,2.94,1.09,5.56,3.52,6.68,5.82.1.28.17.57.23.86,0,.09,0,.18,0,.3,0,.09-.01.18-.02.26-.12.49-.35,1.48-.6,1.92-2.68,2.97-11.19,6.66-20.09,2.16-3.01-1.39-5.84-3.13-8.67-4.85Z"/>
      <path class="cls-1" d="M465.11,14.41c-2.88,5.37-6.02,10.6-8.95,15.94-1.16,2.45-3.03,4.88-3.65,7.5-.58,2.72,2.39,5.2,4.99,4.39,1.41-.41,2.35-1.49,2.89-2.82.86-1.68,1.76-3.34,2.67-5,2.93-5.36,6.08-10.59,8.97-15.97,2.54-4.61-4.12-8.51-6.91-4.04Z"/>
      <path class="cls-1" d="M450.37,51.77c-5.27.13-5.26,7.85,0,8,5.27-.13,5.26-7.86,0-8Z"/>
    </g>
  </g>
</svg>