<?xml version="1.0" encoding="UTF-8"?>
<svg id="Layer_2" data-name="Layer 2" xmlns="http://www.w3.org/2000/svg" viewBox="0 0 289.33 70.87">
  <defs>
    <style>
      .cls-1 {
        fill: #06dbdb;
      }
    </style>
  </defs>
  <g id="For_me" data-name="For me">
    <g>
      <path class="cls-1" d="M41.18,26.61c-.25-2.85-.44-5.71-.64-8.57-.12-.92,0-1.91-.35-2.76,6.84-.89,13.82-1.66,21.49-2.18,5.19-.38,10.38-.75,15.58-.99,2.96-.38,7.39.95,8.76-2.58.87-1.76.02-4.02-1.64-5-1.11-.7-2.43-.54-3.68-.52-1.64.03-3.28.09-4.92.17-6.44.35-12.88.79-19.31,1.35-12.37.93-32.74,4-40.97,5.13-3.31.42-6.61.9-9.93,1.2-1.55.14-3.29.06-4.43,1.31-2.5,2.35-.62,6.94,2.83,6.83,10.42-1.08,19.5-2.42,28.48-3.67,0,.09-.02.18-.02.28.86,11.39,1.9,22.78,1.49,34.21-.03,2.82-.06,5.63-.04,8.45.03.84-.05,1.73.37,2.48,1.05,3.02,5.6,3.25,7.11.48,1-1.85.33-4.08.51-6.09.12-9.85.27-19.7-.7-29.52Z"/>
      <path class="cls-1" d="M183.5,29.02c-.32.02-.64.08-.94.15.85-4.93,1.79-10.56,2.21-14.78.12-3.38.91-7.46-1.42-10.26-1.92-2.34-6.11-1.54-7.14,1.25-.75,1.64-.27,3.19.76,4.24.13,3.22-.69,9.34-1.61,14.48-.36,2.05-.72,4.11-1.07,6.17-2.4.23-5.01.48-7.48.75.34-2.95.69-5.66,1.05-8,.29-2.01.58-4.02.91-6.03.29-1.03.13-2.16-.4-3.08-1.24-2.23-4.51-2.63-6.28-.81-.53.49-.82,1.11-1.02,1.77h-.01s-.01.08-.02.12c-.1.35-.18.71-.26,1.07-.6,2.36-1.22,4.72-1.86,7.07-.94,3.37-1.92,6.44-2.9,9.18-3.78.45-7.56.89-11.35,1.21-2.25.32-4.7-.17-6.84.58-4,1.53-2.73,7.71,1.54,7.66,4.38-.1,8.73-.51,13.08-1.01-4.14,8.06-7.6,10.65-13.12,10.91-6.64-.16-14.32-6.03-15.91-14.72-.74-6.34,3.03-15.73,9.53-19.96.13-.08.28-.14.41-.21.93,1.43,1.65,2.98,2.38,4.52.63,1.43.59,1.15,1.68,4.27.4,2.51,3.23,4.41,5.63,3.24,3.29-1.29,2.42-4.8,1.79-7.5-.75-4.19-.68-3.35-.94-6.52-.07-3.12-2.82-4.38-5.07-3.8-2.07-2.14-4.71-3.19-8.22-1.73-7.4,3.71-12.51,11.48-14.43,19.4-.56,3-1.03,6.1-.65,9.14.1.91.28,1.8.52,2.67-.25.01-.5.03-.75.05-.3-2.08-.59-4.16-.88-6.24-.61-4.23-1.19-8.47-2.02-12.66-.42-2.18-.92-4.42-2.07-6.34-1.37-2.3-4.47-3.29-6.78-1.78-1.72,1.11-2.45,3.1-3.29,4.87-1.56.11-3.05,1.05-3.53,2.87-2.18,7.16-5.03,13.4-8.3,20.38-.17,0-.33.01-.5.02-1.8.04-2.98.99-3.54,2.21-5.19,1.55-10.39,3.06-15.62,4.47-3.66.91-7.66,2.03-11.26,2.87.69-.48,1.47-1.02,2.44-1.71,3.76-2.49,7.68-4.78,11.8-6.62-.32.13-.64.27-.96.4,2.02-1.01,4.47-1.34,6.19-2.85,1.83-1.81,1.4-4.99-.81-6.28-1.77-1.1-3.82-.18-5.69.13-7.59,1.45-9.95,2.02-16.88,2.29-.14,0-.27-.01-.41-.02,2.32-2.74,5.94-5.37,11.1-7.76.91-.34,3.35-1.27,4.02-1.39,1.62-.49,3.27-.84,4.93-1.12,1.79-.2,3.59-.24,5.38-.04,1.12.21,2.24.45,3.32.83.97.32,1.97.86,3.02.58,4.25-.41,4.65-6.71.53-7.79-8.53-3.44-18.15-1.33-26.2,2.47-5.22,2.5-15.3,9.19-15.19,15.56.11,3.23,2.89,5.62,5.9,6.3,1.06.16,2.13.25,3.19.29-1.19.86-2.37,1.74-3.53,2.66-2.15,1.84-4.74,3.55-5.92,6.2-.99,2.22-.03,5.07,2.1,6.24,2.38,1.17,5.15.87,7.68.48,8.67-1.45,17.12-3.97,25.58-6.32,1.52-.44,3.04-.9,4.56-1.34-.19,2.63,2.38,5.08,5.07,4.25,1.54-.38,2.44-1.78,3.2-3.07.79-1.38,1.58-2.75,2.36-4.14,4.44-.17,8.88-.39,13.31-.56.28,0,.56-.03.84-.04.44,3.05.91,6.09,1.48,9.11.47,2.9.91,5.81,1.45,8.71.14.86.28,1.77.91,2.41,1.79,2.65,6.25,1.71,7-1.36.4-1.37-.19-2.75-.36-4.11-.44-2.4-.8-4.8-1.19-7.21-.44-2.63-.86-5.26-1.27-7.9.09,0,.18,0,.28-.01.55.02,1.06-.09,1.54-.34.34-.12.63-.28.9-.48,5.1,8.06,15.21,13.92,24.82,11.43,5.89-1.44,10.16-5.65,13.31-10.62-.14,2.39-.26,4.78-.35,7.17-.13,3.31-.22,6.62-.25,9.93-.37,3.12,1.74,6.05,5.11,5.21,3.93-1.56,2.71-4.45,2.9-6.06.05-3.99.19-7.99.36-11.98.19-4.49.52-9.13.91-13.57,2.36-.27,4.72-.52,7.09-.76-.21,1.71-.39,3.43-.53,5.15-.2,3.48-.94,9,3.96,9.18,2.15,0,4.03-1.83,4-4-.1-.92-.1-1.84-.08-2.76.07-2.38.29-4.76.6-7.13.04-.35.09-.79.16-1.26,1.45-.15,2.92-.28,4.21-.96,3.6-1.97,2.25-7.55-1.89-7.56ZM98.64,41.22c2.33-4.73,4.42-9.58,6.54-14.42.87,4.65,1.52,9.35,2.15,14.05-2.9.11-5.8.24-8.7.37Z"/>
      <path class="cls-1" d="M288.79,47.07c1.34-2.18.07-5.22-2.39-5.88-1.26-.4-2.47.09-3.62.58-2.38.93-4.74,1.89-7.1,2.87-6.51,2.69-13.02,5.4-19.78,7.4-2,.5-3.33.83-4.36,1.01,1.05-.98,2.25-2.02,3.3-2.85,3.48-2.94,11.94-8.6,18.37-12.82,2.92-1.88,1.67-6.9-1.8-7.15-1.23-.31-2.37.41-3.49.83-1.86.77-3.75,1.48-5.65,2.14-5.69,1.9-10.44,3.11-13.93,3.08-.1,0-.17,0-.26-.01.2-.2.52-.53,1.13-1.18,3.85-3.67,9.62-7.68,14.69-9.46,1.7.98,4.05.83,5.44-1.4,1.33-2.17.81-5.15-1.47-6.44-3.57-2.19-12.54,2.26-19.43,7.5.3-3.03.58-6.09.8-9.2.15-4.5,1.38-9.35-.34-13.66-1.45-2.76-5.33-3.29-7.5-1.06-7.57,10.01-12.35,21.94-16.77,33.61-.29.78-.58,1.58-.86,2.36-2.03-8.87-5.43-24.91-13.73-23.21-2.89.75-4.2,3.77-4.72,7.57-2.32.14-4.55,2.3-3.76,5.04,2.67,6.95,2.32,9.05,3.16,16.04.4,2.55.28,5.29,1.33,7.67,1.27,2.56,5.21,2.91,6.82.51,1.08-1.33.99-3.17,1-4.8.09-5.99-.71-11.97-.8-17.94.46,1.38.92,2.91,1.37,4.56,1.07,4.07,1.93,8.18,2.97,12.26.64,2.11.87,4.54,2.37,6.25,2.57,2.68,6.59,1.11,7.9-2.06,1.73-3.69,2.95-7.6,4.38-11.41,2.93-7.92,5.43-14.17,9.14-21.07-1.06,14.98-3.29,27.75-4.87,42.82.11,5.1,7.41,5.26,7.95.41.06.03.12.07.18.1,2.66,1.37,5.78,1.18,8.66.73,8.03-1.41,15.54-4.84,23.08-7.84,2.88-1.19,5.76-2.38,8.66-3.51,1.43-.57,3.11-.94,3.88-2.42ZM245.84,47.4c.14-1.1.28-2.2.42-3.32,1.11.17,2.22.21,3.34.16-1.27,1.02-2.55,2.05-3.76,3.16Z"/>
      <path class="cls-1" d="M285.24,51.5c-5.27.13-5.26,7.86,0,8,5.27-.13,5.26-7.85,0-8Z"/>
    </g>
  </g>
</svg>