<?xml version="1.0" encoding="UTF-8"?>
<svg id="Layer_1" data-name="Layer 1" xmlns="http://www.w3.org/2000/svg" viewBox="0 0 892.23 144.66">
  <defs>
    <style>
      .cls-1 {
        fill: #06dbdb;
      }
    </style>
  </defs>
  <path class="cls-1" d="M170.21,61.44c-8.33-7.12-21.04-4.48-28.34,2.85-1.1,1.1-2.41,2.22-3.36,3.53-.03.03-.05.08-.08.11-.71,1-1.2,2.1-1.21,3.41-.74,3.68-1.34,7.76-1.7,12-.14-.42-.3-.83-.52-1.2-.32-.46-.77-1.07-1.09-1.49v-.02c.11.14.25.32.43.55-.18-.23-.34-.48-.48-.74-.15-.52-.28-1.07-.35-1.47-.06-.84-.11-1.67-.55-2.41-.51-1.46-1.62-2.55-2.98-3.16.02-3,.03-6,.06-9,.02-3.81.03-7.61-.03-11.42-.06-1.44.18-2.98-.54-4.28-2.35-6.14-11.81-4.2-11.75,2.36.09,9.71.03,19.43-.08,29.15-7.05.49-14.09,1.02-21.15,1.44.22-6.92.49-13.84.89-20.75.29-4.37.51-8.76,1.07-13.12.06-.31.23-1.37.37-2.15.44-1.58.21-3.31-.61-4.73-2.5-4.6-9.99-3.65-11.22,1.47-2.04,13.18-2.46,26.54-2.78,39.87-4.24.17-8.49.28-12.73.31,1.92-18.16,4.52-36.44,1.69-54.57-1.01-4.53-.52-11.85-6.55-12.49-2.96-.6-5.92,1.57-6.74,4.4-.49,1.55-.05,3.08.26,4.62.54,2.79,1.03,5.6,1.43,8.41.74,6.14.61,12.32.46,18.47-.82,10.84-1.71,21.12-2.71,31.03-2.03-.05-4.06-.1-6.08-.19-2.64-.09-5.26-.31-7.89-.55-1.59-.1-3.29-.55-4.79.04-.46-4.16-.87-8.33-1.15-12.52-.57-4.11.2-9.02-2.78-12.34-2.29-2.38-6.4-2.38-8.68,0-2.26,2.06-2.56,5.25-3.38,8.04-.92,3.51-1.8,7.06-2.64,10.6-2.79,11.6-4.89,22.19-8.91,30.72-1.1-12.17-.71-29.37-.51-42.72.08-2.82.2-5.66.37-8.49.09-1.53.46-3.21-.35-4.6-2.33-6.14-11.83-4.2-11.75,2.36C-.1,65.53-.07,78.31.09,91.04c.17,6.14.32,12.27.92,18.4.43,3.73.69,7.56,2.36,10.99,2.09,3.94,7.27,5.28,11.11,3.07,8.58-4.34,12.38-18.78,15.1-27.48.14-.54.28-1.09.41-1.63,1.58,9.3,3.9,18.46,7.38,27.28,2.82,6.71,5.2,13.86,9.57,19.73,6.81,7.09,14.44,1.55,16.65-6.47,4.13-12.91,5.07-26.61,6.61-40.06,4.56-.02,9.12-.13,13.68-.31,0,.03,0,.06,0,.09.03,14.85-.69,29.84,1.18,44.59,1.29,5.14,8.64,6.09,11.22,1.47.61-3.15.69-3.64.69-3.76.06,2.24.4.68-.06-.92-.29-3.67-.54-7.15-.66-10.65-.22-10.48-.25-20.96-.08-31.44,4.92-.29,9.83-.63,14.74-.98,2.19-.16,4.38-.31,6.56-.46-.06,4.18-.13,8.35-.19,12.53-.09,6.52-.06,13.06.23,19.58.25,2.65-.08,5.57,1.21,7.98,1.1,1.95,3.24,3.33,5.52,3.28,5.34-.21,7.26-5.25,5.71-8.84-.69-11.79-.35-23.59-.16-35.37,2.31-.46,4.49-1.68,5.46-3.75-.45,12.15,1.43,24.94,8.36,33.26,4.88,5.51,13.2,5.89,19.41,2.5,6.92-4.28,11.19-12,13.67-19.56,3.61-12.77,4.5-33.28-6.47-42.67ZM53.05,127.48c-1.73-3.54-2.53-5.74-4.36-10.43-2.88-7.56-4.98-15.41-6.45-23.37.08,0,.14.02.22.02,5.17.51,10.36.82,15.55,1-.91,7.98-1.91,15.73-3.01,23.32-.54,3.18-1.12,6.35-1.95,9.47ZM157.83,112.45c-.37.25-.68.43-.91.57-.37.14-.74.28-1.12.38-.44.11-.83.18-1.1.25-.25.02-.51,0-.75,0-.18-.05-.37-.11-.55-.17-.14-.08-.28-.17-.41-.26-.18-.17-.41-.38-.63-.61-.77-1.09-1.44-2.22-1.99-3.44-2.75-8.58-2.65-9.73-2.88-18.75.11-7.01.35-9.42,1.03-13.24.12-.92.37-1.84.6-2.76,4.74-4.59,5.14-4.22,9.44-4.93.29,0,.58,0,.87.02.41.09.81.23,1.21.38.66.32,1.49.86,2.01,1.2.14.12.28.23.4.35.08.09.12.14.18.2,2.21,3.38,2.16,3.79,3.31,9.73,1.83,14.82-3.91,27.22-8.7,31.09Z"/>
  <path class="cls-1" d="M294.4,52.48c-2.04,1.89-4.57,3.93-4.48,6.98-.14,4.3,4.47,7.01,8.15,5.83-.1,2.48-.09,5.12.01,7.8-6.72-6.24-15.92-9.53-24.24-13.11-9.71-3.99-21.77-8.01-31.65-11.77-1.38-2.19-3.96-2.96-6.31-2.5-2.58-1.09-4.88-2.13-6.75-3.16.05,0,.17.11.32.23-2.24-1.58-4.86-1.81-7.9.61-2.33,2.33-2.38,6.37,0,8.68.23.17.45.35.64.54.08.11.15.25.26.4.61.78,2.49,4.6,3.22,6.09,1.72,4.77,2.93,9.97,3.76,15.13.03,3.82.12,7.63.23,11.43.18,3.87.35,7.73.58,11.6.11,3.31.46,7.13,3.59,9.02,2.58,1.49,6.18.91,7.92-1.58,1.84-2.3,1.53-5.65,1.7-8.45-.03-4.8-.4-9.61-.84-14.39-.26-2.49-.54-4.99-.86-7.47-.02-3.79.02-7.58.15-11.38.05-.71.09-1.33.14-1.89,4.2,1.56,8.41,3.11,12.61,4.65,18.26,6.26,38.34,15.24,37.47,19.84,0,5.29-11.46,13.27-26.38,17.42-12.75,3.7-17.92,4.68-29.84,5.11-6.32.05-13.16-.81-14.99-1.23-1.96-.26-3.87-1.46-5.86-1.01-4.93.32-7.06,7.04-3.53,10.37,3.97,3.15,9.67,2.84,14.47,3.65,22.05,1.96,44.91-3.39,64.23-14.07,4.38-2.79,8.79-6.78,11.51-11.37,1.89,5.28,4.61,9.66,8.36,12.12,15.99,9.08,31.59-10,33.54-24.8,4.82-32.94-22.56-52.37-49.24-29.32ZM330.01,85.33c-3.53,7.98-8.24,11.38-12.21,11.37-.18-.05-.37-.11-.55-.17-.37-.18-.72-.4-1.07-.61-.18-.17-.35-.37-.54-.55-.52-.84-1.12-2.06-1.46-2.73-2.88-7.66-3.19-11.05-3.61-16.62-.32-5.16-.61-10.34-.02-15.48.26-1.46.6-2.96.54-4.4,8.85-3.61,16.57-.06,19.18,8.44,2.93,7.64,1.33,17.61-.26,20.76Z"/>
  <path class="cls-1" d="M572.74,69.24c-1.64-.49-3.27-.08-4.8.54-2.73.98-5.43,2.03-8.13,3.08-12.66,4.89-25.12,10.4-36.49,17.89-9.25,5.59-16.92,11.17-24.44,13.61,1.81-3.87,4.1-7.49,6.4-11.06,4.16-6.83,17-20.73,23.55-26.02,4.19-1.95,9.57-4.7,8.1-10.1-2.01-6.2-8.59-5.03-12.74-1.69-.49.34-1.01.74-1.56,1.15-5.25,2.61-10.6,4.99-15.96,7.33-.58.25-1.18.49-1.76.74,8.96-8.98,18.55-17.35,28.65-25.01,5.57-5.83-2.79-14.24-8.68-8.68-9.57,7.17-18.54,15.11-27.08,23.48-3.25,3.15-6.46,6.34-9.42,9.74-1.26,1.49-2.65,2.94-3.65,4.63.13-.83.26-1.68.4-2.54,2.1-4.74,3.7-9.74,5.05-14.59,2.38-9.07,4.23-18.27,5.88-27.51.75-6,2.65-12.15,1.73-18.24-1.21-4.77-7.53-5.85-10.83-2.52-2.38,2.47-3.24,5.94-4.17,9.13-3.41,13.4-5.46,27.1-7.89,40.69-.54,3.18-1.06,6.34-1.6,9.51-1.72,3.64-3.7,6.72-6.05,9.05-4.21,4.78-10.81,6.18-16.35,6.15.13-4.24.16-8.48.02-12.73-.46-3.48.43-7.73-2.21-10.46-3.61-3.85-10.65-.95-10.48,4.34.42,4.62.53,9.24.5,13.86-.47-.41-.98-.75-1.58-.94-3.37-1.57-6.57.32-7.88,3.09.17-9.16.62-18.31,1.76-27.39-.04-1.61-.55-2.88-1.33-3.85,9.98-.01,19.95.14,29.92.69,2.36.15,4.73.32,7.09.55,1.44.15,2.98.43,4.28-.34,2.29-.77,3.79-3.24,3.77-5.62-.34-7.89-9.82-6.11-15.3-6.89-26.41-1.46-52.87-.17-79.31-.08-3.36.25-7.38-.84-9.99,1.84-3.85,3.61-.95,10.65,4.34,10.48,15.17,0,30.36-.42,45.54-.58-.75.96-1.25,2.22-1.29,3.79-1.75,12.18-1.56,24.53-1.83,36.82-.08,5.98-.11,11.97-.02,17.95.2,2.64-.31,5.54.72,8.01,1.37,3.99,7.12,5,9.94,1.98,2.49-2.36,1.61-5.77,1.63-8.82.01-7.8-.06-15.61,0-23.42.29.61.69,1.19,1.24,1.73,1.33,2.53,4.15,4.56,7.76,5.98-.26,4.66-.54,9.31-.75,13.97-.08,2.47-.6,5.32,1.24,7.3,2.33,3.51,8.15,3.02,10.11-.61.61-1.2.95-2.52.8-3.84.12-2.98.26-5.95.43-8.93.1-1.87.21-3.75.31-5.62,6.34.15,13.01-1.13,18.24-4.19.45-.25.84-.52,1.27-.78-.51,3.71-.97,7.43-1.38,11.15-.81,7.04-1.46,14.1-2.26,21.14-.08,3.47-1.66,7.61-.35,10.85,1.2,3.39,5.75,4.82,8.78,2.95,2.45-1.44,3.65-4.65,3.16-7.46,1.5-13.75,2.78-27.53,4.68-41.21.35-1.99.74-4.32,1.15-6.88.84,2.58,3.06,4.68,5.94,5.16,3.59.46,7.07-.2,10.48-1.3-8.53,10.73-15.31,22.29-13.96,29.49,3.88,13.79,18.92,6.66,27.5,1.89,8.18-4.68,16.03-9.93,24.14-14.73,11.6-6.34,16.39-8.06,28.51-12.87,3.38-1.7,8.02-1.76,10.17-5.2,2.06-3.36.12-8.02-3.65-9.02Z"/>
  <path class="cls-1" d="M673.76,19.94c-1.72-4.17-3.58-8.29-5.09-12.52-.87-3.16-2.18-7.12-6.05-7.32-2.96-.6-5.94,1.57-6.74,4.4-.69,2.3.43,4.53,1.12,6.67,1.21,3.25,2.59,6.41,3.91,9.62,3.82,8.98,7.2,18.14,9.85,27.53,2.53,9.61,4.42,19.36,5.94,29.17,1.81,14.93,1.52,30.64-.54,36.38-3.27-4.54-9.64-15.44-13.01-22.22-4.31-8.25-8.39-16.63-12.44-25.01-2.81-5.28-5.82-15.71-13.7-11.68-2.76,1.44-3.81,4.59-4.13,7.5-.66,3.99-1.33,7.99-2.03,11.98-.57,3.19-1.18,6.38-1.92,9.54-.97-7.09-1.57-13.03-2.62-22.97-.64-3.97-.29-8.24-1.44-12.08-2.33-6.14-11.83-4.19-11.75,2.36,1.32,14.42,2.84,28.85,5.03,43.18.75,3.87.81,8.27,3.54,11.37,4.04,4.73,11.08,1.98,13.56-2.95,4.02-7.78,5.91-16.29,7.38-24.89,3.42,7.04,6.81,14.12,10.53,21.01,3.27,6.23,6.6,12.43,10.53,18.26,2.22,3.18,4.22,6.71,7.43,8.99,7.46,4.77,14.65-2.09,16.92-9.14,3.65-14.48,2.15-29.86.25-44.48-2.67-18.09-7.3-35.89-14.53-52.72Z"/>
  <path class="cls-1" d="M704.57,47.16c-2.56,1.04-5.75,1.57-7.21,4.17-1.76,2.95-.63,6.17,1.64,7.92-7.67,14.24-7.01,35.77.58,47.83,9.07,13.23,23.49,6.48,30.81-4.66,9.27-12.46,12.43-35.67,2.47-48.46-6.51-7.46-19.09-9.88-28.29-6.8ZM712.96,102.04c-.4.05-.78.08-1.18.09-.21-.12-.43-.26-.63-.4-.38-.34-.75-.69-1.1-1.07-.58-.84-1.09-1.75-1.53-2.67-3.59-8.84-4.73-25.5,3.77-36.78.29-.34.68-.77,1.04-1.12.86-.6,1.86-1.06,2.73-1.64,4.5,1.18,3.02.41,6.75,2.65.11.09.21.2.34.32.17.18.29.34.41.46,1.98,3.01,1.86,3.08,2.87,8.27,1.99,18.17-8.67,30.35-13.47,31.88Z"/>
  <path class="cls-1" d="M873.41,104.21c-1.81-1.66-3.61-3.33-5.4-5-7.69-7.36-16-13.99-24.55-20.33-.74-.55-3.1-2.35-3.77-2.85-2.79-2.19-5-3.73-6.72-5.72.2-.08.4-.14.6-.21,7.35-2.65,14.84-4.85,22.26-7.3,4.22-1.47,8.75-2.56,12.49-5.11,8.1-4.96.29-16.08-6.89-10.13-4.37,2.56-17.72,5.98-26.76,9.18-3.47,1.32-7.27,2.23-10.43,4.18.05-1.25.09-2.49.17-3.74.25-2.24.51-4.5.8-6.74.21-1.41.48-2.92-.29-4.2-1.66-4.36-6.89-4.63-9.78-2.09.51-4.75.05-9.55-2.02-13.89-2.44-5.65-7.49-9.82-13.35-11.54-6.69-2.5-13.99-3.71-21.08-2.41-13.18,1.99-24.83,10.19-31.73,21.37-2.19.34-4.2,1.75-4.88,4.33-.28,1.12-.49,2.24-.72,3.36-.41.12-.84.28-1.27.49-2.39,1.37-3.51,4.3-2.82,6.94.43,1.53,1.46,2.7,2.67,3.7-.51,7.56-.23,15.22.06,22.79.92,12.9,1.92,25.9,4.39,38.62,1.64,5.57,8.93,7.07,12,1.8,1.93-3.7.97-8.15.68-12.12-1.93-15.59-3.51-22.98-4.43-38.93,0-.44-.02-.86-.02-1.29,6.46,6.86,13.99,15.48,19.72,21.28,7.63,7.52,15.42,14.87,23.35,22.08,3.02,2.73,6.11,5.43,9.33,7.93,1.66,1.18,3.19,2.9,5.32,3.01,6.48,1.04,9.62-8.12,3.9-11.38-8.09-6-25.55-22.49-36.41-33.66-1.78-1.86-3.53-3.74-5.26-5.63,5.31,1.21,10.74,1.76,16.2,1.29,9.7-1.03,18.84-7.6,23.29-16.22.11-.27.21-.55.32-.82-.79,8.61-.62,17.3-.24,25.94.25,6.09.6,12.18,1,18.27.28,2.03-.11,4.23.78,6.11,1.61,4.63,8.59,4.99,10.91.74,1.52-2.5.52-5.49.52-8.24-.43-6.35-.73-12.7-1-19.07,1.59,1.7,3.33,3.21,4.9,4.38,7.4,5.83,15.01,10.91,24.14,19.06,3.65,3.3,7.26,6.67,10.88,10,1.72,1.61,3.54,3.47,6.08,3.36,3.94.11,7-3.97,5.91-7.75-.4-1.63-1.57-2.78-2.81-3.81ZM801.07,50.61c-.26.51-.63,1.21-.98,1.76-.46.52-1.55,1.76-2.15,2.24-.51.52-1.7,1.55-2.29,2.04-.21.15-.41.31-.63.46-9.3,6.8-25.56,1.41-40.29-6.17-.15-.08-.29-.15-.44-.23.11-.34.21-.66.34-1.01,3.38-11.22,16.74-20.97,28.02-21.63,6.32-.55,12.66,1.67,16.54,3.73,4.73,4.39,5.05,8.33,1.89,18.81Z"/>
  <path class="cls-1" d="M886.18,93.11c-8.09.2-8.07,12.06,0,12.27,8.09-.2,8.06-12.06,0-12.27Z"/>
</svg>