<?xml version="1.0" encoding="UTF-8"?>
<svg id="Layer_2" data-name="Layer 2" xmlns="http://www.w3.org/2000/svg" viewBox="0 0 875.56 107.62">
  <defs>
    <style>
      .cls-1 {
        fill: #06dbdb;
      }
    </style>
  </defs>
  <g id="Layer_2-2" data-name="Layer 2">
    <g>
      <path class="cls-1" d="M136.41,56.75c-1.4-.06-2.56.71-3.72,1.38-2.52,1.42-5.06,2.82-7.59,4.22-6.44,3.59-12.9,7.18-19.67,10.1,3.24-4.03,8.18-9.23,12.95-12.73,2.2-1.71,7.3-5.48,12.47-8.46,2.85-1.05,5.76-2.34,5.82-5.67.04-2.85-2.71-5.28-5.53-4.75-1.82.37-3.5,1.21-5.11,2.18-5.56,2.13-16.55,5.56-24.91,7.58,1.93-1.75,3.97-3.38,5.97-5.03,4.84-3.66,10-6.94,15.48-9.56.44-.19.82-.36,1.03-.45,1.32-.53,2.68-.96,4.09-1.19,1.6-.12,3.28-.22,4.44-1.47,3.01-2.76.8-8.25-3.29-8.14-4.85.17-9.36,2.06-13.6,4.31-4.77,2.55-9.33,5.48-13.59,8.8-4.53,3.71-9.62,7.28-12.7,12.35-.03,0-.05,0-.08.01-.1.02-.2.03-.29.05-.39-2.42-.8-4.78-1.25-7-.56-3.07-1.11-6.14-1.74-9.19-.36-1.35-.34-2.93-1.34-4-2.96-4.18-9.72-.85-8.35,4.08,1.26,6.06,2.37,12.06,3.31,17.8-3.68.66-7.35,1.36-11.01,2.08-.32-1.73-.63-3.46-.96-5.19-.51-2.62-1.01-5.24-1.65-7.83-.28-1.07-.4-2.28-1.2-3.11-2.97-4.18-9.72-.85-8.35,4.08,1.11,4.59,2.02,9.22,2.88,13.87-.9.17-1.8.35-2.7.52-2.66.52-5.34.94-8.01,1.34-.26.04-.52.07-.79.11-.54-6.88-.94-13.76-1.2-20.66-.07-1.75-.05-3.52.06-5.27.07-.84.17-1.73-.05-2.54,4.97-.54,9.95-1.04,14.9-1.71,2.88-.58,6.61-.27,8.57-2.82,2.19-2.42.71-6.7-2.41-7.48-1.06-.23-2.15-.21-3.14.2-2.6.61-5.26.86-7.9,1.22-3.63.42-22.11,2.27-30.53,3.83-6.21,1.03-12.35,2.43-18.44,4.04-2.1.73-4.81.82-6.2,2.76-3.13,3.74,1.19,9.05,5.42,7.35,5.87-1.71,11.83-3.08,17.82-4.28,4.87-.9,8.89-1.5,12.55-1.99,0,0,0,0,0,0-.54,7.4.3,14.82.67,22.22.7,10.08,1.54,20.16,3.41,30.1.5,2.7,1,5.39,1.54,8.08.31,2.54,1.51,5.56,4.45,5.74,2.29.48,4.6-1.18,5.24-3.36.41-1.27.03-2.54-.29-3.79-.43-2.07-.82-4.14-1.22-6.21-1.38-7.42-1.88-10.55-2.43-15.97.3-.02.61-.08.93-.16,3.82-.57,7.61-1.24,11.41-1.94.94,5.32,1.91,10.63,3.09,15.9.96,3.99,6.65,4.78,8.68,1.21,1.07-1.74.56-3.67.1-5.51-.64-3-1.21-6.02-1.77-9.03-.26-1.45-.52-2.9-.78-4.35,3.57-.7,7.14-1.41,10.72-2.08.5,3.68.93,7.2,1.24,10.43.55,5.09,1.03,10.18,1.65,15.26.39,2.02.15,4.42,1.51,6.09,2.97,4.18,9.72.85,8.35-4.08-1.06-6.98-2.05-18.26-3.46-29.36.07-.01.14-.02.21-.04.64.51,1.38.91,2.23,1.14,3.5.91,7.13-.03,10.56-.83.43-.11.85-.22,1.28-.33-2.13,2.12-4.16,4.35-6.02,6.73-2.25,3.02-5,6.11-5.64,9.92-.8,4.27,3.24,7.94,7.4,7.53,4.66-.27,8.85-2.55,13.07-4.33,7.61-3.58,14.89-7.8,22.25-11.86,2.1-1.31,5.01-2.14,5.71-4.8.9-2.93-1.49-6.06-4.53-6.05Z"/>
      <path class="cls-1" d="M154.95,66.76c-1.65-9.08-3.11-18.2-4.98-27.23-1.77-6-10.63-3.65-9.19,2.45,2.48,11.89,4.15,23.94,6.66,35.82.7,4.37,6.55,5.62,8.84,1.78.91-1.53.72-3.22.2-4.85-.56-2.64-1.05-5.3-1.55-7.96Z"/>
      <path class="cls-1" d="M143.4,27.08c6.27-.1,6.33-9.28.08-9.51-6.27.1-6.33,9.28-.08,9.51Z"/>
      <path class="cls-1" d="M220.45,78.05c-.39-.11-.84-.26-1.17-.39-.23-.11-.46-.22-.69-.33-6.38-3.3-10.4-6.69-13.73-9.56-4.74-4.29-9.06-9-13.38-13.72,5.22.56,10.47.32,15.6-1.15,17.49-5.96,12.43-22.99-.03-31.58-8.04-6.15-19.04-5.13-28.12-2.08-6.62,2.05-11.67,6.51-14.56,12.13-.41-.91-.97-1.72-1.91-2.23-3.46-2.22-8.22,1.36-7.03,5.31,3.8,11.39,5.5,23.34,8.02,35.05.8,3.9,1.66,7.79,2.68,11.64.83,4.31,3.61,8.12,8.38,5.91,6.31-3.91,1.39-20.13.2-26.34-.91-4.01-1.94-8.01-2.74-12.05.67.28,1.34.55,2.02.81,2.64,2.49,5.47,5.53,8.36,8.67,6.55,7.02,12.85,14.39,20.52,20.22,4.23,3.11,16.01,12.52,20.74,7.82,1.25-1.19,1.64-2.96,1.26-4.62-.51-2.04-2.39-3.36-4.41-3.54ZM179.24,41.42c-2.12-1.9-4.37-3.65-6.84-5.09,3.59-7.82,14.06-10.3,22.1-9.99,7,.7,13.79,7.58,14.52,13.1-.64,5.99-14.58,7.4-29.78,1.98Z"/>
      <path class="cls-1" d="M338.3,60.83c-2.62.02-4.45,2.33-6.65,3.48-4.44,2.85-8.91,5.64-13.44,8.33-10.35,6.36-29.71,15.97-36.57,18.81-4.49,1.87-9.06,3.66-13.86,4.55-.48.05-.73.09-.82.11-.04,0-.09,0-.13.01-.71.16-2.55.04-3.08.02,0,0-.02,0-.03,0-.42-.09-.84-.21-1.25-.35-.22-.11-.44-.22-.64-.35-.04-.04-.08-.08-.12-.12-.01-.02-.02-.04-.03-.06,0-.02-.01-.04-.02-.06,0-.11,0-.26.02-.42.07-.31.19-.83.35-1.29.96-2,2.25-3.83,3.61-5.57,3.53-4.54,18.06-17.4,26.24-23.72,7.12-5.72,11.25-8.77,20.02-14.65,3.39-2.3,6.71-4.71,9.93-7.25,3.02-2.47,7.11-6.15,4.79-10.37-2.81-4.53-8.41-1.74-12.23-.25-7.2,2.85-8.39,3.51-15.37,6.18-9.69,3.68-21.02,7.33-25.77,6,2.71-5.25,6.18-8.13,12.18-13.26.89-.65,2.61-1.92,3.14-2.32,4.62-3.18,9.56-5.84,14.69-8.11.27-.1.45-.17.57-.22,1.66-.66,3.34-1.28,5.05-1.81,3.05-.96,6.19-1.63,9.35-2.05,3.43-.37,6.9-.58,10.33-.16,1.73.31,3.52.78,5.1-.21,3.58-1.89,2.89-7.72-1.06-8.7-18.54-3.32-37.44,4.45-52.08,15.47-6.84,5.33-22.64,18.36-14.74,27.64,5.61,5.94,18.17,3.26,30.21-.98-7.92,5.81-15.54,12.02-22.97,18.44-7.51,6.85-16.12,13.55-20.07,23.21-3.49,9.84,5.32,16.1,14.5,14.77,6.24-.58,12.09-3.01,17.81-5.4,5.9-2.55,11.72-5.26,17.46-8.16,9.59-4.96,19.04-10.19,28.16-15.96,3.67-2.51,7.89-4.51,11.11-7.56,2.55-2.87.12-7.74-3.67-7.66Z"/>
      <path class="cls-1" d="M379.18,84.13c-.07-.04-.14-.09-.21-.13-2.83-1.87-11.97-10.16-17.16-15.49-.16-.16-.31-.33-.47-.5,4.82-9.84,9.47-19.77,14.17-29.67,1.47-3.1,2.95-6.2,4.47-9.27.87-1.87,2.29-3.76,1.63-5.92-.92-3.95-6.71-4.77-8.68-1.21-6.33,12.84-12.33,25.84-18.56,38.73-3.29-3.53-6.54-7.09-9.72-10.72-1.88-2.13-3.76-4.26-5.65-6.38-.84-.89-1.55-2.03-2.77-2.4-4.63-2.18-8.88,4.05-5.26,7.66,6.25,7.04,12.46,14.13,18.93,20.98-.2.4-.39.8-.59,1.2-2.72,5.36-5.55,10.65-8.34,15.97-1,2.28-2.74,4.36-3.22,6.8-.8,3.76,3.8,6.78,7.03,4.79.72-.42,1.29-.98,1.72-1.69,1.19-2.28,2.39-4.55,3.59-6.83,2.33-4.32,4.59-8.68,6.8-13.07,2.99,2.96,6.05,5.85,9.2,8.64,1.89,1.64,3.8,3.26,5.77,4.81,1.92,1.64,4.14,3.12,6.76,3.13,3.07.1,5.45-3.04,4.63-5.98-.47-1.85-2.17-3.27-4.05-3.48Z"/>
      <path class="cls-1" d="M396.24,82.1c-1.15-5.82-2.15-11.66-3.04-17.52,1.23-.42,2.46-.86,3.67-1.32,7.59-2.87,14.99-6.22,22.07-10.18,9.19-5.41,18.91-11.76,23.74-21.62,3.71-7.23.83-16.51-7.37-18.8-19.12-3.98-60.84,2.31-57.08,29.01,1.58,14.5,5.64,28.58,8.78,42.78.05.19.11.38.16.58.65,3.5,1.13,7.08,2.59,10.3,1.84,3.41,7.23,2.99,8.58-.61.69-1.32.4-2.84.16-4.24-.68-2.81-1.53-5.58-2.27-8.38ZM390.87,48.48c-.27-1.8-.54-3.59-.8-5.39-.18-1.17-.22-2.46-1.1-3.35-.4-.57-.88-.99-1.4-1.3,0-.25-.03-.5-.03-.75,0-6.09,6.64-11.45,17.97-14.3,7.58-1.83,11.32-2.34,20.65-2.36,4.62.33,3.04-.01,6.86.89.32.17.62.35.92.55.09.08.17.18.25.27,1.1,1.92.51,2.88,0,4.55-5.94,11.1-20.67,18.61-36.36,25.44-2,.79-4,1.57-6.03,2.29-.31-2.18-.61-4.36-.93-6.54Z"/>
      <path class="cls-1" d="M433.77,61.18c9.75-7.06,21.92-13.92,30.03-16.43,5.99-1.74,3.66-10.63-2.45-9.19-14.82,4.7-44.24,22.2-50.67,36.5-.76,2.79.45,5.81,2.91,7.33,3.05,1.73,7.5,1.51,12.08.56-3.47,3.19-6.69,6.65-9.52,10.45-2.12,2.72-4.15,5.83-4.19,9.4-.05,4.91,4.51,8.01,9.12,7.82,5.87-.24,11.31-2.67,16.6-5.01,5.82-2.79,11.53-5.81,17.08-9.11,2.76-1.64,5.44-3.42,8.05-5.3,1.39-.99,3-1.93,3.43-3.72,1.22-3.97-3.37-7.57-6.94-5.43-6.37,4.76-13.31,8.68-20.37,12.33-7.32,3.54-9.43,5.09-16.5,6.55.14-.22.28-.44.42-.66,7.81-11.01,20.22-20.02,35.01-27.91.93-.48,1.85-.98,2.79-1.43,0,0-.01-.02-.02-.03.51-.32.98-.7,1.36-1.18,2.55-2.86.11-7.74-3.67-7.66-.93-.02-1.78.3-2.59.7-6.07,2.33-12.16,4.58-18.27,6.8-3.52,1.36-10.59,3.32-14.4,4.17,4.01-4.34,7.58-7.21,10.72-9.55Z"/>
      <path class="cls-1" d="M538.55,92.7c-.73-.36-7.37-3.21-11.4-5.4-9.16-4.86-17.93-10.41-26.7-15.95,2.83.09,5.66,0,8.49-.33,35.37-3.05,37.9-48.7,2.52-54.49-14.65-2.29-31.74,4.28-38.39,18.1-5.66,12.54-3.09,26.84-1.64,40.04.38,3.01.93,6.31,1.48,9.53.09,1.4.18,2.81.27,4.21.24,3.1.55,6.19.96,9.27.14,3.12,1.75,6.95,5.37,6.92,2.57.08,4.73-2.18,4.98-4.66.31-1.99-.2-4.01-.39-6-.49-3.64-1.16-7.26-1.79-10.88-.25-4-.45-8.26-.54-12.13,4.4,2.7,8.79,5.42,13.16,8.15,12.19,7.62,24.27,15.55,37.53,21.22,2.37,1.05,4.76,2.08,7.17,3.04,2.44.74,5.23-.8,5.87-3.27,1.11-5.01-3.42-5.88-6.98-7.41ZM484.62,59.61c-.87-.16-1.72-.39-2.58-.6.08-1.02.17-2.04.29-3.06.33-1.8.87-3.68-.16-5.34-.63-1.2-1.71-1.91-2.89-2.19.27-4.84,1.17-7.88,3.97-12.45,6.68-9.56,25.42-14.77,37.47-5.67,7.51,5.22,10.13,19.04-.52,27.16-7.05,5.35-22.04,5.5-35.58,2.15Z"/>
      <path class="cls-1" d="M548.07,27.14c6.27-.1,6.33-9.28.08-9.51-6.27.1-6.33,9.28-.08,9.51Z"/>
      <path class="cls-1" d="M561.43,81.35c-3.04-15.27-4.65-24.28-5.27-39.28-.09-6.25-9.28-6.34-9.51-.08.69,19.94,4.84,39.6,9.59,58.92.33,4.66,6.43,6.34,8.9,2.27,1.47-2.52,0-5.32-.47-7.93-1.1-4.63-2.2-9.27-3.24-13.91Z"/>
      <path class="cls-1" d="M668.22,10.64c-.47,1.52.14,3.03.33,4.55.45,2.66.82,5.32,1.18,7.99,1,8.17,1.59,16.39,1.81,24.62.31,9.95.23,19.9.18,29.86-.27,5.57.08,9.19-.67,12.51-5.58-3.25-14.57-10.48-18.18-17.83-3.46-6.34-4.84-11.36-7.23-20.31-.83-3.01-1.49-6.07-2.33-9.07-.56-1.57-1.12-3.31-2.67-4.16-2.17-1.35-5.25-.57-6.52,1.65-1.28,2.32-.86,5.04-.99,7.59-.07,3.63-.15,7.27-.24,10.9-.05-.02-.09-.04-.14-.05-2.03-.6-4.32.32-5.39,2.14-.26.44-.42.89-.51,1.35-5.02,3.03-15.16,7.25-22.66,10.05-8.41,2.93-16.82,6.08-25.6,7.69-.57.13-3.94.47-5.72.16,0,0,0-.01,0-.02.07-.14.13-.28.2-.41,3.55-8.24,31.06-20.83,40.57-24.89.48-.17.96-.36,1.44-.55.63-.2,1.26-.39,1.88-.6,4.96-1.15,5.55-7.78.61-9.39-1.61-.5-3.23.13-4.73.72-.26.1-.52.21-.78.31-6.27,1.79-24.59,7.36-30.46,7.52.37-.58.75-1.16,1.13-1.73.27-.34.68-.89.96-1.27,2.4-2.84,5.13-5.37,8.06-7.66,5.09-3.75,10.76-6.64,16.53-9.2,2.59-.96,5.19-1.89,7.86-2.61,2.07-.71,4.55-.69,6.34-2.02,4.18-2.95.84-9.73-4.08-8.35-14.77,3.42-29.17,10.31-39.82,21.27-3.66,4.47-9.89,10.79-6.5,16.89,1.69,2.36,3.95,3.52,6.44,3.97-5.3,3.34-10.4,7.17-13.57,12.63-3.23,5.44-2.23,11.91,4.21,14.18,5.2,1.72,10.83.51,16.04-.6,6.48-1.66,12.84-3.8,19.15-6.02,5.97-2.11,11.83-4.54,17.64-7.07,1.87-.84,3.77-1.67,5.63-2.57.55,6.42,1.23,12.84,2.43,19.18.52,6.25,8.12,8.15,10.29,1.74,1.14-5.43.99-11.06,1.41-16.57.09-1.79.16-3.57.23-5.36,4.85,10.98,13.01,19.84,23.49,26.1,4.49,3.24,10.3,4.07,13.39-1.46,2.99-6.29,2.05-13.59,2.37-20.36.19-21.83.08-43.79-3.84-65.34-1.23-4.6-7.83-4.67-9.17-.08Z"/>
      <path class="cls-1" d="M864.15,75.91c-17.75-10.06-33.23-25.12-34.49-39.19-.92-14.51,11.02-27.23,23.05-27.25,5.46.4,8.17,1.57,9.39,7.74.01.16.03.31.04.47.23,2.06-.86,4.29.08,6.24,1.78,4.79,9.14,3.3,9.11-1.76,2.8-20.38-17.25-27.3-32.99-18.25-9.94,5.54-16.67,16.1-17.96,27.36-2.37,19.89,15.07,36.96,30.18,47.29,3.16,2.2,6.5,4.14,9.78,6.14-1.13.39-2.54.79-4.3,1.14-10.6,2.41-33.17,2.92-39.64-.38-3.87-1.89-4.17-4.55-4.81-8.9.06-1.74-.85-3.14-2.14-3.96,1.4-.81,2.79-1.62,4.19-2.43,2.75-1.62,5.52-3.21,8.15-5.03,1.83-1.29,4-2.78,3.92-5.29.09-3.06-3.04-5.44-5.98-4.63-.73.06-2.15,1.19-2.49,1.52-1.32.96-2.7,1.83-4.1,2.68-6.45,3.87-13,7.58-19.49,11.38-13.68,7.7-27.56,15.83-39.53,19.44-.31.08-.63.16-.95.23,1.29-2.44,3.45-6.06,5.08-8.32,4.87-6.95,8.57-10.96,15.78-18.19,4.43-4.06,7.35-6.92,10.66-9.39,2.27-1.25,4.22-2.39,5.71-3.32,5.04-3.2,1.43-10.41-4.18-8.7-1.79.8-3.91,2.12-6.24,3.79-7.03,3.8-16.76,8.49-25.68,10.49-1.64.33-2.68.52-3.39.63.4-.6.81-1.19,1.19-1.8,6.24-9.64,19.42-20.63,28.56-27.32,2.58-1.94,5.17-3.87,7.93-5.55,1.83-1.21,4.22-1.81,5.61-3.56,3.3-3.91-1.66-9.64-6.08-7.04-6.59,3.29-12.28,8-18.16,12.39-8.97,7.04-17.66,14.63-24.41,23.89-3.79,5.18-8.78,12.1-1.9,17.14,3.6,2.06,9.44,1.54,15.88-.25-3.67,4.12-7.09,8.39-9.88,12.45.43-.77.85-1.54,1.24-2.33.77-1.5,1.62-3.13,1.08-4.86-1.35-4.77-7.91-4.55-9.3.09-4.81,9.08-8.04,11.82-16.34,16.95-5.63,2.97-5.63,3.24-11.24,4.72-9.74,2.81-18.65-8.22-18.06-23.23.62-12.96,6.53-34.46,13.68-42.18,2.96-3.41,6.6-2.78,10.06.84,1.97,7.77,4.78,15.35,7.97,22.66.65,1.03,1.47,1.97,2.52,2.59,2.95,1.73,6.76-.06,7.67-3.28.87-4.56-1.01-9.14-2.52-13.38-1.75-4.65-3.9-9.19-7-13.08-.32-1.43-.61-2.86-.85-4.31-.28-1.3-.25-2.8-1.23-3.82-2.2-3.1-6.47-2.07-7.98.68-4.55-1.37-9.49-.66-13.73,2.93-5.2,4.26-8.01,10.64-10.51,16.72-2.72,6.98-4.7,14.22-6.13,21.57-1.54,7.79-2.13,15.88-.23,23.66,3.37,14.03,15.23,25.04,30.23,20.44,10.11-3.22,19.78-8.99,26.52-17.28.48-.59.94-1.2,1.39-1.81-2.42,4.1-4,7.83-4.28,10.79,1.67,12.31,17.18,5.91,24.34,2.59,8.68-3.77,17-8.31,25.25-12.93,3.32-1.88,6.63-3.79,9.93-5.71.01.39.05.78.14,1.17.27,2.75.86,5.49,2.02,8.01,3.26,7.65,12.04,10.08,19.63,10.77,7.35.85,14.78.48,22.14-.04,7.26-.77,14.83-1.42,21.42-4.82,3.86-1.86,6.66-6.79,3.91-10.69-1.72-2.54-4.72-3.72-7.21-5.35Z"/>
      <path class="cls-1" d="M870.9,58.36c-6.27.1-6.33,9.28-.08,9.51,6.27-.1,6.33-9.28.08-9.51Z"/>
    </g>
  </g>
</svg>