<?xml version="1.0" encoding="UTF-8"?>
<svg id="Layer_2" data-name="Layer 2" xmlns="http://www.w3.org/2000/svg" viewBox="0 0 231.75 95.96">
  <defs>
    <style>
      .cls-1 {
        fill: #06dbdb;
      }
    </style>
  </defs>
  <g id="For_me" data-name="For me">
    <g>
      <path class="cls-1" d="M44.68,7.71c.29-1.41,1.14-2.8.85-4.26-.09-1.57-1.39-2.92-2.87-3.33-3.91-.81-4.99,2.37-5.71,5.49-1.11,3.84-1.97,7.75-2.68,11.68-2.56,13.42-1.19,27.03-.62,40.55,0,.71.02,1.37.03,2-1.41-3.11-2.55-5.91-4.08-10.12-2.06-4.64-3.74-16.13-11.02-12.84-2.9,1.85-2.91,5.76-3.79,8.76-.9,3.76-1.54,8.97-2.27,13.41-2.28-7.65-4.32-16.04-4.47-20.66.11-1.96-.42-4.29-2.5-4.97C3.08,32.2-.09,34.36,0,37.08c.01,6.14,1.69,12.09,3.12,18.02.97,3.79,2.02,7.56,3.27,11.26.79,2.1,1.31,4.43,2.8,6.16,1.81,2.02,5.14,2.05,6.98.06,2.31-2.5,3-6.01,3.69-9.24.71-3.94,1.19-7.91,1.9-11.85,2.07,5.55,4.26,11.06,6.87,16.38,1.27,2.37,2.03,5.24,4.14,7.02,1.58,1.29,4.17,1.37,5.73-.01,5.62-4.19,2.21-27.35,2.28-34.69-.34-8.03.36-16.01,1.26-21.17.72-3.81,1.54-7.61,2.63-11.33Z"/>
      <path class="cls-1" d="M48.53,23.84c-5.27.13-5.26,7.85,0,8,5.27-.13,5.26-7.86,0-8Z"/>
      <path class="cls-1" d="M109.87,4.09c-1.58,1.64-1.95,4.01-2.55,6.12-2.47,10.43-3.78,21.13-4.39,31.84-2.34,5.29-5.58,8.58-8.83,10.01-.62.26-1.19.46-1.74.63-.37-3.08-.72-6.16-1.03-9.24-.02-.3-.03-.61-.02-.91.1-.49.18-.99.04-1.48-.42-4.26-6.7-4.65-7.79-.53-.67,3.48.33,7.01.61,10.49.07.44.12.89.18,1.34-.57-.2-1.16-.31-1.78-.15-1.01.1-1.8.54-2.37,1.15-.24-1.29-.48-2.58-.74-3.86-.89-4.61-1.89-9.2-2.78-13.8-.05-.18-.09-.36-.13-.55.64-.02,1.29-.05,1.93-.07,1.71-.06,3.43-.13,5.14-.19,2.23-.08,4.47-.15,6.7-.2,1.35.06,2.78-.16,3.74-1.19,1.84-1.76,1.4-5.03-.81-6.28-2.2-1.09-4.83-.29-7.19-.42-4.26.15-8.52.3-12.79.48-4.06.17-8.12.39-12.19.51-1.91.19-4-.39-5.8.33-2.66,1.02-2.98,4.07-1.66,6-2.75-1.47-6.71,1.1-5.7,4.62,2.6,9.18,2.99,14.31,3.93,22.33.29,2.69.59,5.38.97,8.05.26,1.28.2,2.78,1.13,3.79,2.53,3.5,8.18.64,7-3.49-1.07-5.82-1.6-15.7-3.32-24.46-.75-3.12-1.04-6.89-2.67-9.65.53.29,1.15.46,1.86.45,3.91.06,7.82-.09,11.73-.27,1.43,7.78,3.19,15.5,4.54,23.3.57,3.27,1.03,6.56,1.58,9.84.34,2.05.7,4.1,1.11,6.13.16.84.3,1.74.92,2.36,1.79,2.66,6.25,1.71,7-1.36.42-2.41-.88-5.44-1.09-7.96-.45-2.7-.87-5.4-1.31-8.11.23.11.47.2.74.27,1.07.46,2.16.78,3.25,1,.21,1.72.46,3.42.82,5.09,1.53,4.01,7.71,2.73,7.66-1.54-.15-1.27-.3-2.53-.45-3.8,3.35-.84,6.54-2.53,9.25-4.77.03,3.44.16,6.88.4,10.31.33,2.87.11,6.02.9,8.77,1.95,4.56,8.68,2.19,7.55-2.65-.75-8.39-1.08-16.83-.75-25.25.03-1.08.09-2.16.14-3.24,2.64-6.86,3.4-14.44,4.4-21.69.41-3.46.79-6.93,1.17-10.4.11-1.97.72-4.01.15-5.95-.7-2.88-4.65-3.94-6.69-1.76Z"/>
      <path class="cls-1" d="M227.8,54.73c-1.92.05-3.13,1.1-3.65,2.43-.16-2.41-2.69-4.2-5.05-3.53-.68.19-1.27.53-1.77,1.03-2.23,1.87-4.43,3.78-6.71,5.59-3.7,2.85-7.58,5.48-11.74,7.6-1.91.89-3.34,1.55-4.84,1.78.02-.04.05-.09.07-.13,2.77-4.77,5.91-8.26,11.54-13.11,2.21-1.9,4.48-3.71,6.75-5.54,1.84-1.75,1.42-5.06-.81-6.28-1.94-1.16-4.02-.24-5.72.88-1.93,1.04-3.9,2.02-5.87,2.97-1.96,1.19-9.92,3.77-12.82,3.92,4.12-5.15,8.72-8.87,12.21-11.22,2.67-1.81,4.29-2.51,5.28-2.76.12.12.26.23.41.32,3.33,2.76,8.09-1.48,5.88-5.16-5.53-8.94-18.39,2.58-23.64,6.96-1.03.96-2.04,1.95-3.01,2.97,1-6.85,2.15-13.68,3.12-20.54.32-3.05,1.03-6.2.26-9.22-.72-2.38-3.19-4.1-5.67-3.44-2.43.71-3.68,3.04-4.68,5.19-1.41,2.9-2.65,5.88-3.78,8.9-3.99,10.19-6.18,19.61-10.64,26.98-.04.05-.06.09-.1.14-1.1-2.19-2.95-6.14-4.08-9.7-1.43-3.43-1.95-7.79-5.14-10.09-1.58-.89-3.6-.86-5.06.2-2.06-.99-5-.24-5.71,2.45-1.75,6.35-1.42,13.01-1.33,19.53.06,2.64.16,5.29.23,7.93.04,1.63.01,3.49,1.29,4.7,2.45,2.5,6.66.7,6.98-2.69.82-6.41,1.3-11.2,2.23-16.75,1.04,2.78,2.2,5.66,3.38,7.87,1.71,4.16,5.47,7.14,9.92,4.75,2.95-1.7,4.76-4.77,6.21-7.75,2.05-4.45,3.73-9.07,5.31-13.59-1.95,13.05-3.44,26.15-4.84,39.27-.41,3.77-.91,7.53-1.35,11.3-.13,1.31-.4,2.65-.04,3.94.72,2.67,4.27,4.21,6.47,2.28,1.39-.95,1.82-2.73,1.39-4.26.21-2.76.63-5.5.94-8.24.7-6.06,1.72-15.41,2.59-22.92,2.42.86,5.46.84,8.07.25.3-.05.59-.12.89-.18-.88,1.11-1.73,2.24-2.52,3.42-2.12,3.14-4.43,7.22-2.41,10.95,6.23,9.28,21.16-1.7,27.55-6.28,2.12-1.6,4.19-3.26,6.21-4.99,1.28-1.22,3.15-2.24,3.87-3.87.11,1.88,1.41,3.68,3.93,3.75,5.27-.13,5.26-7.86,0-8Z"/>
    </g>
  </g>
</svg>